<svg xmlns="http://www.w3.org/2000/svg" version="1.1" xmlns:xlink="http://www.w3.org/1999/xlink" xmlns:svgjs="http://svgjs.dev/svgjs" width="1440" height="560" preserveAspectRatio="none" viewBox="0 0 1440 560"><g mask="url(&quot;#SvgjsMask1012&quot;)" fill="none"><rect width="1440" height="560" x="0" y="0" fill="#0e2a47"></rect><path d="M14.43 177.96L79.38 215.46L79.38 290.46L14.43 327.96L-50.52 290.46L-50.52 215.46zM209.29 65.46L274.25 102.96L274.25 177.96L209.29 215.46L144.34 177.96L144.34 102.96zM469.11 65.46L534.06 102.96L534.06 177.96L469.11 215.46L404.15 177.96L404.15 102.96zM404.15 402.96L469.11 440.46L469.11 515.46L404.15 552.96L339.2 515.46L339.2 440.46zM469.11 515.46L534.06 552.96L534.06 627.96L469.11 665.46L404.15 627.96L404.15 552.96zM599.01 290.46L663.97 327.96L663.97 402.96L599.01 440.46L534.06 402.96L534.06 327.96zM728.92 290.46L793.88 327.96L793.88 402.96L728.92 440.46L663.97 402.96L663.97 327.96zM663.97 402.96L728.92 440.46L728.92 515.46L663.97 552.96L599.01 515.46L599.01 440.46zM728.92 515.46L793.88 552.96L793.88 627.96L728.92 665.46L663.97 627.96L663.97 552.96zM793.87 -47.04L858.83 -9.54L858.83 65.46L793.87 102.96L728.92 65.46L728.92 -9.54zM858.83 65.46L923.78 102.96L923.78 177.96L858.83 215.46L793.87 177.96L793.87 102.96zM793.87 177.96L858.83 215.46L858.83 290.46L793.87 327.96L728.92 290.46L728.92 215.46zM858.83 290.46L923.78 327.96L923.78 402.96L858.83 440.46L793.87 402.96L793.87 327.96zM793.87 402.96L858.83 440.46L858.83 515.46L793.87 552.96L728.92 515.46L728.92 440.46zM923.78 177.96L988.74 215.46L988.74 290.46L923.78 327.96L858.83 290.46L858.83 215.46zM1053.69 -47.04L1118.64 -9.54L1118.64 65.46L1053.69 102.96L988.74 65.46L988.74 -9.54zM1118.64 65.46L1183.6 102.96L1183.6 177.96L1118.64 215.46L1053.69 177.96L1053.69 102.96zM1053.69 402.96L1118.64 440.46L1118.64 515.46L1053.69 552.96L988.74 515.46L988.74 440.46zM1183.6 402.96L1248.55 440.46L1248.55 515.46L1183.6 552.96L1118.64 515.46L1118.64 440.46zM1313.51 -47.04L1378.46 -9.54L1378.46 65.46L1313.51 102.96L1248.55 65.46L1248.55 -9.54zM1443.41 177.96L1508.37 215.46L1508.37 290.46L1443.41 327.96L1378.46 290.46L1378.46 215.46zM1508.37 290.46L1573.32 327.96L1573.32 402.96L1508.37 440.46L1443.41 402.96L1443.41 327.96z" stroke="#03305d" stroke-width="2"></path><path d="M6.93 177.96 a7.5 7.5 0 1 0 15 0 a7.5 7.5 0 1 0 -15 0zM71.88 215.46 a7.5 7.5 0 1 0 15 0 a7.5 7.5 0 1 0 -15 0zM71.88 290.46 a7.5 7.5 0 1 0 15 0 a7.5 7.5 0 1 0 -15 0zM6.93 327.96 a7.5 7.5 0 1 0 15 0 a7.5 7.5 0 1 0 -15 0zM-58.02 290.46 a7.5 7.5 0 1 0 15 0 a7.5 7.5 0 1 0 -15 0zM-58.02 215.46 a7.5 7.5 0 1 0 15 0 a7.5 7.5 0 1 0 -15 0zM201.79 65.46 a7.5 7.5 0 1 0 15 0 a7.5 7.5 0 1 0 -15 0zM266.75 102.96 a7.5 7.5 0 1 0 15 0 a7.5 7.5 0 1 0 -15 0zM266.75 177.96 a7.5 7.5 0 1 0 15 0 a7.5 7.5 0 1 0 -15 0zM201.79 215.46 a7.5 7.5 0 1 0 15 0 a7.5 7.5 0 1 0 -15 0zM136.84 177.96 a7.5 7.5 0 1 0 15 0 a7.5 7.5 0 1 0 -15 0zM136.84 102.96 a7.5 7.5 0 1 0 15 0 a7.5 7.5 0 1 0 -15 0zM461.61 65.46 a7.5 7.5 0 1 0 15 0 a7.5 7.5 0 1 0 -15 0zM526.56 102.96 a7.5 7.5 0 1 0 15 0 a7.5 7.5 0 1 0 -15 0zM526.56 177.96 a7.5 7.5 0 1 0 15 0 a7.5 7.5 0 1 0 -15 0zM461.61 215.46 a7.5 7.5 0 1 0 15 0 a7.5 7.5 0 1 0 -15 0zM396.65 177.96 a7.5 7.5 0 1 0 15 0 a7.5 7.5 0 1 0 -15 0zM396.65 102.96 a7.5 7.5 0 1 0 15 0 a7.5 7.5 0 1 0 -15 0zM396.65 402.96 a7.5 7.5 0 1 0 15 0 a7.5 7.5 0 1 0 -15 0zM461.61 440.46 a7.5 7.5 0 1 0 15 0 a7.5 7.5 0 1 0 -15 0zM461.61 515.46 a7.5 7.5 0 1 0 15 0 a7.5 7.5 0 1 0 -15 0zM396.65 552.96 a7.5 7.5 0 1 0 15 0 a7.5 7.5 0 1 0 -15 0zM331.7 515.46 a7.5 7.5 0 1 0 15 0 a7.5 7.5 0 1 0 -15 0zM331.7 440.46 a7.5 7.5 0 1 0 15 0 a7.5 7.5 0 1 0 -15 0zM526.56 552.96 a7.5 7.5 0 1 0 15 0 a7.5 7.5 0 1 0 -15 0zM526.56 627.96 a7.5 7.5 0 1 0 15 0 a7.5 7.5 0 1 0 -15 0zM461.61 665.46 a7.5 7.5 0 1 0 15 0 a7.5 7.5 0 1 0 -15 0zM396.65 627.96 a7.5 7.5 0 1 0 15 0 a7.5 7.5 0 1 0 -15 0zM591.51 290.46 a7.5 7.5 0 1 0 15 0 a7.5 7.5 0 1 0 -15 0zM656.47 327.96 a7.5 7.5 0 1 0 15 0 a7.5 7.5 0 1 0 -15 0zM656.47 402.96 a7.5 7.5 0 1 0 15 0 a7.5 7.5 0 1 0 -15 0zM591.51 440.46 a7.5 7.5 0 1 0 15 0 a7.5 7.5 0 1 0 -15 0zM526.56 402.96 a7.5 7.5 0 1 0 15 0 a7.5 7.5 0 1 0 -15 0zM526.56 327.96 a7.5 7.5 0 1 0 15 0 a7.5 7.5 0 1 0 -15 0zM721.42 290.46 a7.5 7.5 0 1 0 15 0 a7.5 7.5 0 1 0 -15 0zM786.38 327.96 a7.5 7.5 0 1 0 15 0 a7.5 7.5 0 1 0 -15 0zM786.38 402.96 a7.5 7.5 0 1 0 15 0 a7.5 7.5 0 1 0 -15 0zM721.42 440.46 a7.5 7.5 0 1 0 15 0 a7.5 7.5 0 1 0 -15 0zM721.42 515.46 a7.5 7.5 0 1 0 15 0 a7.5 7.5 0 1 0 -15 0zM656.47 552.96 a7.5 7.5 0 1 0 15 0 a7.5 7.5 0 1 0 -15 0zM591.51 515.46 a7.5 7.5 0 1 0 15 0 a7.5 7.5 0 1 0 -15 0zM786.38 552.96 a7.5 7.5 0 1 0 15 0 a7.5 7.5 0 1 0 -15 0zM786.38 627.96 a7.5 7.5 0 1 0 15 0 a7.5 7.5 0 1 0 -15 0zM721.42 665.46 a7.5 7.5 0 1 0 15 0 a7.5 7.5 0 1 0 -15 0zM656.47 627.96 a7.5 7.5 0 1 0 15 0 a7.5 7.5 0 1 0 -15 0zM786.37 -47.04 a7.5 7.5 0 1 0 15 0 a7.5 7.5 0 1 0 -15 0zM851.33 -9.54 a7.5 7.5 0 1 0 15 0 a7.5 7.5 0 1 0 -15 0zM851.33 65.46 a7.5 7.5 0 1 0 15 0 a7.5 7.5 0 1 0 -15 0zM786.37 102.96 a7.5 7.5 0 1 0 15 0 a7.5 7.5 0 1 0 -15 0zM721.42 65.46 a7.5 7.5 0 1 0 15 0 a7.5 7.5 0 1 0 -15 0zM721.42 -9.54 a7.5 7.5 0 1 0 15 0 a7.5 7.5 0 1 0 -15 0zM916.28 102.96 a7.5 7.5 0 1 0 15 0 a7.5 7.5 0 1 0 -15 0zM916.28 177.96 a7.5 7.5 0 1 0 15 0 a7.5 7.5 0 1 0 -15 0zM851.33 215.46 a7.5 7.5 0 1 0 15 0 a7.5 7.5 0 1 0 -15 0zM786.37 177.96 a7.5 7.5 0 1 0 15 0 a7.5 7.5 0 1 0 -15 0zM851.33 290.46 a7.5 7.5 0 1 0 15 0 a7.5 7.5 0 1 0 -15 0zM786.37 327.96 a7.5 7.5 0 1 0 15 0 a7.5 7.5 0 1 0 -15 0zM721.42 215.46 a7.5 7.5 0 1 0 15 0 a7.5 7.5 0 1 0 -15 0zM916.28 327.96 a7.5 7.5 0 1 0 15 0 a7.5 7.5 0 1 0 -15 0zM916.28 402.96 a7.5 7.5 0 1 0 15 0 a7.5 7.5 0 1 0 -15 0zM851.33 440.46 a7.5 7.5 0 1 0 15 0 a7.5 7.5 0 1 0 -15 0zM786.37 402.96 a7.5 7.5 0 1 0 15 0 a7.5 7.5 0 1 0 -15 0zM851.33 515.46 a7.5 7.5 0 1 0 15 0 a7.5 7.5 0 1 0 -15 0zM786.37 552.96 a7.5 7.5 0 1 0 15 0 a7.5 7.5 0 1 0 -15 0zM981.24 215.46 a7.5 7.5 0 1 0 15 0 a7.5 7.5 0 1 0 -15 0zM981.24 290.46 a7.5 7.5 0 1 0 15 0 a7.5 7.5 0 1 0 -15 0zM1046.19 -47.04 a7.5 7.5 0 1 0 15 0 a7.5 7.5 0 1 0 -15 0zM1111.14 -9.54 a7.5 7.5 0 1 0 15 0 a7.5 7.5 0 1 0 -15 0zM1111.14 65.46 a7.5 7.5 0 1 0 15 0 a7.5 7.5 0 1 0 -15 0zM1046.19 102.96 a7.5 7.5 0 1 0 15 0 a7.5 7.5 0 1 0 -15 0zM981.24 65.46 a7.5 7.5 0 1 0 15 0 a7.5 7.5 0 1 0 -15 0zM981.24 -9.54 a7.5 7.5 0 1 0 15 0 a7.5 7.5 0 1 0 -15 0zM1176.1 102.96 a7.5 7.5 0 1 0 15 0 a7.5 7.5 0 1 0 -15 0zM1176.1 177.96 a7.5 7.5 0 1 0 15 0 a7.5 7.5 0 1 0 -15 0zM1111.14 215.46 a7.5 7.5 0 1 0 15 0 a7.5 7.5 0 1 0 -15 0zM1046.19 177.96 a7.5 7.5 0 1 0 15 0 a7.5 7.5 0 1 0 -15 0zM1046.19 402.96 a7.5 7.5 0 1 0 15 0 a7.5 7.5 0 1 0 -15 0zM1111.14 440.46 a7.5 7.5 0 1 0 15 0 a7.5 7.5 0 1 0 -15 0zM1111.14 515.46 a7.5 7.5 0 1 0 15 0 a7.5 7.5 0 1 0 -15 0zM1046.19 552.96 a7.5 7.5 0 1 0 15 0 a7.5 7.5 0 1 0 -15 0zM981.24 515.46 a7.5 7.5 0 1 0 15 0 a7.5 7.5 0 1 0 -15 0zM981.24 440.46 a7.5 7.5 0 1 0 15 0 a7.5 7.5 0 1 0 -15 0zM1176.1 402.96 a7.5 7.5 0 1 0 15 0 a7.5 7.5 0 1 0 -15 0zM1241.05 440.46 a7.5 7.5 0 1 0 15 0 a7.5 7.5 0 1 0 -15 0zM1241.05 515.46 a7.5 7.5 0 1 0 15 0 a7.5 7.5 0 1 0 -15 0zM1176.1 552.96 a7.5 7.5 0 1 0 15 0 a7.5 7.5 0 1 0 -15 0zM1306.01 -47.04 a7.5 7.5 0 1 0 15 0 a7.5 7.5 0 1 0 -15 0zM1370.96 -9.54 a7.5 7.5 0 1 0 15 0 a7.5 7.5 0 1 0 -15 0zM1370.96 65.46 a7.5 7.5 0 1 0 15 0 a7.5 7.5 0 1 0 -15 0zM1306.01 102.96 a7.5 7.5 0 1 0 15 0 a7.5 7.5 0 1 0 -15 0zM1241.05 65.46 a7.5 7.5 0 1 0 15 0 a7.5 7.5 0 1 0 -15 0zM1241.05 -9.54 a7.5 7.5 0 1 0 15 0 a7.5 7.5 0 1 0 -15 0zM1435.91 177.96 a7.5 7.5 0 1 0 15 0 a7.5 7.5 0 1 0 -15 0zM1500.87 215.46 a7.5 7.5 0 1 0 15 0 a7.5 7.5 0 1 0 -15 0zM1500.87 290.46 a7.5 7.5 0 1 0 15 0 a7.5 7.5 0 1 0 -15 0zM1435.91 327.96 a7.5 7.5 0 1 0 15 0 a7.5 7.5 0 1 0 -15 0zM1370.96 290.46 a7.5 7.5 0 1 0 15 0 a7.5 7.5 0 1 0 -15 0zM1370.96 215.46 a7.5 7.5 0 1 0 15 0 a7.5 7.5 0 1 0 -15 0zM1565.82 327.96 a7.5 7.5 0 1 0 15 0 a7.5 7.5 0 1 0 -15 0zM1565.82 402.96 a7.5 7.5 0 1 0 15 0 a7.5 7.5 0 1 0 -15 0zM1500.87 440.46 a7.5 7.5 0 1 0 15 0 a7.5 7.5 0 1 0 -15 0zM1435.91 402.96 a7.5 7.5 0 1 0 15 0 a7.5 7.5 0 1 0 -15 0z" fill="#03305d"></path><path d="M148.39 65.09L196.89 93.09L196.89 149.09L148.39 177.09L99.89 149.09L99.89 93.09zM148.39 233.09L196.89 261.09L196.89 317.09L148.39 345.09L99.89 317.09L99.89 261.09zM99.89 485.09L148.39 513.09L148.39 569.09L99.89 597.09L51.39 569.09L51.39 513.09zM245.38 233.09L293.88 261.09L293.88 317.09L245.38 345.09L196.89 317.09L196.89 261.09zM245.38 401.09L293.88 429.09L293.88 485.09L245.38 513.09L196.89 485.09L196.89 429.09zM293.88 485.09L342.38 513.09L342.38 569.09L293.88 597.09L245.38 569.09L245.38 513.09zM390.88 -18.91L439.38 9.09L439.38 65.09L390.88 93.09L342.38 65.09L342.38 9.09zM439.38 569.09L487.88 597.09L487.88 653.09L439.38 681.09L390.88 653.09L390.88 597.09zM536.38 233.09L584.88 261.09L584.88 317.09L536.38 345.09L487.88 317.09L487.88 261.09zM536.38 401.09L584.88 429.09L584.88 485.09L536.38 513.09L487.88 485.09L487.88 429.09zM536.38 569.09L584.88 597.09L584.88 653.09L536.38 681.09L487.88 653.09L487.88 597.09zM633.37 233.09L681.87 261.09L681.87 317.09L633.37 345.09L584.88 317.09L584.88 261.09zM633.37 569.09L681.87 597.09L681.87 653.09L633.37 681.09L584.88 653.09L584.88 597.09zM681.87 -18.91L730.37 9.09L730.37 65.09L681.87 93.09L633.37 65.09L633.37 9.09zM827.37 65.09L875.87 93.09L875.87 149.09L827.37 177.09L778.87 149.09L778.87 93.09zM827.37 401.09L875.87 429.09L875.87 485.09L827.37 513.09L778.87 485.09L778.87 429.09zM875.87 -18.91L924.37 9.09L924.37 65.09L875.87 93.09L827.37 65.09L827.37 9.09zM924.37 65.09L972.87 93.09L972.87 149.09L924.37 177.09L875.87 149.09L875.87 93.09zM924.37 233.09L972.87 261.09L972.87 317.09L924.37 345.09L875.87 317.09L875.87 261.09zM875.87 317.09L924.37 345.09L924.37 401.09L875.87 429.09L827.37 401.09L827.37 345.09zM1021.36 233.09L1069.86 261.09L1069.86 317.09L1021.36 345.09L972.87 317.09L972.87 261.09zM1069.86 149.09L1118.36 177.09L1118.36 233.09L1069.86 261.09L1021.36 233.09L1021.36 177.09zM1118.36 401.09L1166.86 429.09L1166.86 485.09L1118.36 513.09L1069.86 485.09L1069.86 429.09zM1118.36 569.09L1166.86 597.09L1166.86 653.09L1118.36 681.09L1069.86 653.09L1069.86 597.09zM1215.36 65.09L1263.86 93.09L1263.86 149.09L1215.36 177.09L1166.86 149.09L1166.86 93.09zM1215.36 401.09L1263.86 429.09L1263.86 485.09L1215.36 513.09L1166.86 485.09L1166.86 429.09zM1166.86 485.09L1215.36 513.09L1215.36 569.09L1166.86 597.09L1118.36 569.09L1118.36 513.09zM1263.86 -18.91L1312.36 9.09L1312.36 65.09L1263.86 93.09L1215.36 65.09L1215.36 9.09zM1263.86 149.09L1312.36 177.09L1312.36 233.09L1263.86 261.09L1215.36 233.09L1215.36 177.09zM1263.86 317.09L1312.36 345.09L1312.36 401.09L1263.86 429.09L1215.36 401.09L1215.36 345.09zM1263.86 485.09L1312.36 513.09L1312.36 569.09L1263.86 597.09L1215.36 569.09L1215.36 513.09zM1312.36 569.09L1360.86 597.09L1360.86 653.09L1312.36 681.09L1263.86 653.09L1263.86 597.09zM1409.36 401.09L1457.85 429.09L1457.85 485.09L1409.36 513.09L1360.86 485.09L1360.86 429.09z" stroke="rgba(6, 80, 156, 0.93)" stroke-width="2"></path></g><defs><mask id="SvgjsMask1012"><rect width="1440" height="560" fill="#ffffff"></rect></mask></defs></svg>