<svg xmlns="http://www.w3.org/2000/svg" version="1.1" xmlns:xlink="http://www.w3.org/1999/xlink" xmlns:svgjs="http://svgjs.dev/svgjs" width="1440" height="250" preserveAspectRatio="none" viewBox="0 0 1440 250"><g mask="url(&quot;#SvgjsMask1000&quot;)" fill="none"><rect width="1440" height="250" x="0" y="0" fill="#0e2a47"></rect><path d="M37 250L287 0L426.5 0L176.5 250z" fill="url(&quot;#SvgjsLinearGradient1001&quot;)"></path><path d="M257.6 250L507.6 0L635.1 0L385.1 250z" fill="url(&quot;#SvgjsLinearGradient1001&quot;)"></path><path d="M477.20000000000005 250L727.2 0L1064.7 0L814.7 250z" fill="url(&quot;#SvgjsLinearGradient1001&quot;)"></path><path d="M717.8000000000001 250L967.8000000000001 0L1123.8000000000002 0L873.8000000000001 250z" fill="url(&quot;#SvgjsLinearGradient1001&quot;)"></path><path d="M1401 250L1151 0L815 0L1065 250z" fill="url(&quot;#SvgjsLinearGradient1002&quot;)"></path><path d="M1181.4 250L931.4000000000001 0L722.9000000000001 0L972.9000000000001 250z" fill="url(&quot;#SvgjsLinearGradient1002&quot;)"></path><path d="M960.8 250L710.8 0L461.79999999999995 0L711.8 250z" fill="url(&quot;#SvgjsLinearGradient1002&quot;)"></path><path d="M690.1999999999999 250L440.19999999999993 0L284.19999999999993 0L534.1999999999999 250z" fill="url(&quot;#SvgjsLinearGradient1002&quot;)"></path><path d="M1190.4669966287966 250L1440 0.4669966287964371L1440 250z" fill="url(&quot;#SvgjsLinearGradient1001&quot;)"></path><path d="M0 250L249.53300337120356 250L 0 0.4669966287964371z" fill="url(&quot;#SvgjsLinearGradient1002&quot;)"></path></g><defs><mask id="SvgjsMask1000"><rect width="1440" height="250" fill="#ffffff"></rect></mask><linearGradient x1="0%" y1="100%" x2="100%" y2="0%" id="SvgjsLinearGradient1001"><stop stop-color="rgba(15, 70, 185, 0.2)" offset="0"></stop><stop stop-opacity="0" stop-color="rgba(15, 70, 185, 0.2)" offset="0.66"></stop></linearGradient><linearGradient x1="100%" y1="100%" x2="0%" y2="0%" id="SvgjsLinearGradient1002"><stop stop-color="rgba(15, 70, 185, 0.2)" offset="0"></stop><stop stop-opacity="0" stop-color="rgba(15, 70, 185, 0.2)" offset="0.66"></stop></linearGradient></defs></svg>