<svg xmlns="http://www.w3.org/2000/svg" version="1.1" xmlns:xlink="http://www.w3.org/1999/xlink" xmlns:svgjs="http://svgjs.dev/svgjs" width="1440" height="560" preserveAspectRatio="none" viewBox="0 0 1440 560"><g mask="url(&quot;#SvgjsMask1000&quot;)" fill="none"><rect width="1440" height="560" x="0" y="0" fill="#0e2a47"></rect><path d="M-37.98 337.79L-37.98 337.79" stroke="#132e65" stroke-width="1.5"></path><path d="M-37.98 337.79L63.89 400.91" stroke="#132e65" stroke-width="1.5"></path><path d="M-37.98 337.79L-59.97 535.29" stroke="#132e65" stroke-width="1.5"></path><path d="M-37.98 337.79L91.63 501.3" stroke="#132e65" stroke-width="1.5"></path><path d="M-37.98 337.79L252.76 401.15" stroke="#132e65" stroke-width="1.5"></path><path d="M-59.97 535.29L-59.97 535.29" stroke="#132e65" stroke-width="1.5"></path><path d="M-59.97 535.29L-79.37 677.43" stroke="#132e65" stroke-width="1.5"></path><path d="M-59.97 535.29L91.63 501.3" stroke="#132e65" stroke-width="1.5"></path><path d="M-59.97 535.29L63.89 400.91" stroke="#132e65" stroke-width="1.5"></path><path d="M-79.37 677.43L-79.37 677.43" stroke="#132e65" stroke-width="1.5"></path><path d="M-79.37 677.43L101.84 644.67" stroke="#132e65" stroke-width="1.5"></path><path d="M-79.37 677.43L91.63 501.3" stroke="#132e65" stroke-width="1.5"></path><path d="M-79.37 677.43L207.78 690.2" stroke="#132e65" stroke-width="1.5"></path><path d="M63.89 400.91L63.89 400.91" stroke="#132e65" stroke-width="1.5"></path><path d="M63.89 400.91L91.63 501.3" stroke="#132e65" stroke-width="1.5"></path><path d="M63.89 400.91L252.76 401.15" stroke="#132e65" stroke-width="1.5"></path><path d="M63.89 400.91L101.84 644.67" stroke="#132e65" stroke-width="1.5"></path><path d="M63.89 400.91L-79.37 677.43" stroke="#132e65" stroke-width="1.5"></path><path d="M91.63 501.3L91.63 501.3" stroke="#132e65" stroke-width="1.5"></path><path d="M91.63 501.3L101.84 644.67" stroke="#132e65" stroke-width="1.5"></path><path d="M101.84 644.67L101.84 644.67" stroke="#132e65" stroke-width="1.5"></path><path d="M101.84 644.67L207.78 690.2" stroke="#132e65" stroke-width="1.5"></path><path d="M101.84 644.67L-59.97 535.29" stroke="#132e65" stroke-width="1.5"></path><path d="M101.84 644.67L349.12 686.64" stroke="#132e65" stroke-width="1.5"></path><path d="M252.76 401.15L252.76 401.15" stroke="#132e65" stroke-width="1.5"></path><path d="M252.76 401.15L368.97 338.05" stroke="#132e65" stroke-width="1.5"></path><path d="M252.76 401.15L379.13 507.8" stroke="#132e65" stroke-width="1.5"></path><path d="M252.76 401.15L91.63 501.3" stroke="#132e65" stroke-width="1.5"></path><path d="M252.76 401.15L101.84 644.67" stroke="#132e65" stroke-width="1.5"></path><path d="M207.78 690.2L207.78 690.2" stroke="#132e65" stroke-width="1.5"></path><path d="M207.78 690.2L349.12 686.64" stroke="#132e65" stroke-width="1.5"></path><path d="M207.78 690.2L91.63 501.3" stroke="#132e65" stroke-width="1.5"></path><path d="M207.78 690.2L379.13 507.8" stroke="#132e65" stroke-width="1.5"></path><path d="M368.97 338.05L368.97 338.05" stroke="#132e65" stroke-width="1.5"></path><path d="M368.97 338.05L379.13 507.8" stroke="#132e65" stroke-width="1.5"></path><path d="M379.13 507.8L379.13 507.8" stroke="#132e65" stroke-width="1.5"></path><path d="M379.13 507.8L528.6 526.71" stroke="#132e65" stroke-width="1.5"></path><path d="M349.12 686.64L349.12 686.64" stroke="#132e65" stroke-width="1.5"></path><path d="M349.12 686.64L379.13 507.8" stroke="#132e65" stroke-width="1.5"></path><path d="M552.97 383.29L552.97 383.29" stroke="#132e65" stroke-width="1.5"></path><path d="M552.97 383.29L669.29 369.74" stroke="#132e65" stroke-width="1.5"></path><path d="M552.97 383.29L528.6 526.71" stroke="#132e65" stroke-width="1.5"></path><path d="M528.6 526.71L528.6 526.71" stroke="#132e65" stroke-width="1.5"></path><path d="M528.6 526.71L697.17 558.97" stroke="#132e65" stroke-width="1.5"></path><path d="M533.14 706.81L533.14 706.81" stroke="#132e65" stroke-width="1.5"></path><path d="M533.14 706.81L669.87 666.03" stroke="#132e65" stroke-width="1.5"></path><path d="M533.14 706.81L528.6 526.71" stroke="#132e65" stroke-width="1.5"></path><path d="M533.14 706.81L349.12 686.64" stroke="#132e65" stroke-width="1.5"></path><path d="M533.14 706.81L697.17 558.97" stroke="#132e65" stroke-width="1.5"></path><path d="M533.14 706.81L379.13 507.8" stroke="#132e65" stroke-width="1.5"></path><path d="M669.29 369.74L669.29 369.74" stroke="#132e65" stroke-width="1.5"></path><path d="M669.29 369.74L807.43 255.69" stroke="#132e65" stroke-width="1.5"></path><path d="M669.29 369.74L847.58 345.65" stroke="#132e65" stroke-width="1.5"></path><path d="M669.29 369.74L793.9 502.69" stroke="#132e65" stroke-width="1.5"></path><path d="M697.17 558.97L697.17 558.97" stroke="#132e65" stroke-width="1.5"></path><path d="M697.17 558.97L669.87 666.03" stroke="#132e65" stroke-width="1.5"></path><path d="M697.17 558.97L793.9 502.69" stroke="#132e65" stroke-width="1.5"></path><path d="M697.17 558.97L849.12 640.45" stroke="#132e65" stroke-width="1.5"></path><path d="M697.17 558.97L669.29 369.74" stroke="#132e65" stroke-width="1.5"></path><path d="M669.87 666.03L669.87 666.03" stroke="#132e65" stroke-width="1.5"></path><path d="M669.87 666.03L849.12 640.45" stroke="#132e65" stroke-width="1.5"></path><path d="M807.43 255.69L807.43 255.69" stroke="#132e65" stroke-width="1.5"></path><path d="M807.43 255.69L847.58 345.65" stroke="#132e65" stroke-width="1.5"></path><path d="M807.43 255.69L941.69 370.63" stroke="#132e65" stroke-width="1.5"></path><path d="M807.43 255.69L1007.15 241.03" stroke="#132e65" stroke-width="1.5"></path><path d="M807.43 255.69L945.31 52.79" stroke="#132e65" stroke-width="1.5"></path><path d="M807.43 255.69L793.9 502.69" stroke="#132e65" stroke-width="1.5"></path><path d="M847.58 345.65L847.58 345.65" stroke="#132e65" stroke-width="1.5"></path><path d="M847.58 345.65L941.69 370.63" stroke="#132e65" stroke-width="1.5"></path><path d="M847.58 345.65L793.9 502.69" stroke="#132e65" stroke-width="1.5"></path><path d="M793.9 502.69L793.9 502.69" stroke="#132e65" stroke-width="1.5"></path><path d="M793.9 502.69L849.12 640.45" stroke="#132e65" stroke-width="1.5"></path><path d="M849.12 640.45L849.12 640.45" stroke="#132e65" stroke-width="1.5"></path><path d="M955.24 -80.68L955.24 -80.68" stroke="#132e65" stroke-width="1.5"></path><path d="M955.24 -80.68L945.31 52.79" stroke="#132e65" stroke-width="1.5"></path><path d="M955.24 -80.68L1138.73 -63.92" stroke="#132e65" stroke-width="1.5"></path><path d="M955.24 -80.68L1116.83 108.67" stroke="#132e65" stroke-width="1.5"></path><path d="M945.31 52.79L945.31 52.79" stroke="#132e65" stroke-width="1.5"></path><path d="M945.31 52.79L1116.83 108.67" stroke="#132e65" stroke-width="1.5"></path><path d="M945.31 52.79L1007.15 241.03" stroke="#132e65" stroke-width="1.5"></path><path d="M945.31 52.79L1138.73 -63.92" stroke="#132e65" stroke-width="1.5"></path><path d="M1007.15 241.03L1007.15 241.03" stroke="#132e65" stroke-width="1.5"></path><path d="M1007.15 241.03L941.69 370.63" stroke="#132e65" stroke-width="1.5"></path><path d="M1007.15 241.03L1116.83 108.67" stroke="#132e65" stroke-width="1.5"></path><path d="M1007.15 241.03L1112.46 385.86" stroke="#132e65" stroke-width="1.5"></path><path d="M1007.15 241.03L847.58 345.65" stroke="#132e65" stroke-width="1.5"></path><path d="M941.69 370.63L941.69 370.63" stroke="#132e65" stroke-width="1.5"></path><path d="M998.91 648.85L998.91 648.85" stroke="#132e65" stroke-width="1.5"></path><path d="M998.91 648.85L849.12 640.45" stroke="#132e65" stroke-width="1.5"></path><path d="M998.91 648.85L1088.6 508.87" stroke="#132e65" stroke-width="1.5"></path><path d="M998.91 648.85L1242.67 684.01" stroke="#132e65" stroke-width="1.5"></path><path d="M1138.73 -63.92L1138.73 -63.92" stroke="#132e65" stroke-width="1.5"></path><path d="M1138.73 -63.92L1274.82 -54.53" stroke="#132e65" stroke-width="1.5"></path><path d="M1138.73 -63.92L1116.83 108.67" stroke="#132e65" stroke-width="1.5"></path><path d="M1116.83 108.67L1116.83 108.67" stroke="#132e65" stroke-width="1.5"></path><path d="M1112.46 385.86L1112.46 385.86" stroke="#132e65" stroke-width="1.5"></path><path d="M1112.46 385.86L1088.6 508.87" stroke="#132e65" stroke-width="1.5"></path><path d="M1112.46 385.86L1275.83 338.28" stroke="#132e65" stroke-width="1.5"></path><path d="M1088.6 508.87L1088.6 508.87" stroke="#132e65" stroke-width="1.5"></path><path d="M1088.6 508.87L1260.73 518.7" stroke="#132e65" stroke-width="1.5"></path><path d="M1274.82 -54.53L1274.82 -54.53" stroke="#132e65" stroke-width="1.5"></path><path d="M1274.82 -54.53L1396.96 -55.52" stroke="#132e65" stroke-width="1.5"></path><path d="M1274.82 -54.53L1297.91 76.51" stroke="#132e65" stroke-width="1.5"></path><path d="M1274.82 -54.53L1116.83 108.67" stroke="#132e65" stroke-width="1.5"></path><path d="M1274.82 -54.53L1436.32 105.25" stroke="#132e65" stroke-width="1.5"></path><path d="M1274.82 -54.53L1544.33 40.86" stroke="#132e65" stroke-width="1.5"></path><path d="M1297.91 76.51L1297.91 76.51" stroke="#132e65" stroke-width="1.5"></path><path d="M1297.91 76.51L1436.32 105.25" stroke="#132e65" stroke-width="1.5"></path><path d="M1297.91 76.51L1396.96 -55.52" stroke="#132e65" stroke-width="1.5"></path><path d="M1275.83 338.28L1275.83 338.28" stroke="#132e65" stroke-width="1.5"></path><path d="M1275.83 338.28L1415.08 357.2" stroke="#132e65" stroke-width="1.5"></path><path d="M1275.83 338.28L1260.73 518.7" stroke="#132e65" stroke-width="1.5"></path><path d="M1260.73 518.7L1260.73 518.7" stroke="#132e65" stroke-width="1.5"></path><path d="M1260.73 518.7L1398.64 530.36" stroke="#132e65" stroke-width="1.5"></path><path d="M1260.73 518.7L1242.67 684.01" stroke="#132e65" stroke-width="1.5"></path><path d="M1260.73 518.7L1396.73 663.89" stroke="#132e65" stroke-width="1.5"></path><path d="M1260.73 518.7L1112.46 385.86" stroke="#132e65" stroke-width="1.5"></path><path d="M1242.67 684.01L1242.67 684.01" stroke="#132e65" stroke-width="1.5"></path><path d="M1242.67 684.01L1396.73 663.89" stroke="#132e65" stroke-width="1.5"></path><path d="M1396.96 -55.52L1396.96 -55.52" stroke="#132e65" stroke-width="1.5"></path><path d="M1396.96 -55.52L1436.32 105.25" stroke="#132e65" stroke-width="1.5"></path><path d="M1396.96 -55.52L1544.33 40.86" stroke="#132e65" stroke-width="1.5"></path><path d="M1396.96 -55.52L1599.44 -110.92" stroke="#132e65" stroke-width="1.5"></path><path d="M1436.32 105.25L1436.32 105.25" stroke="#132e65" stroke-width="1.5"></path><path d="M1436.32 105.25L1427.72 218.25" stroke="#132e65" stroke-width="1.5"></path><path d="M1436.32 105.25L1544.33 40.86" stroke="#132e65" stroke-width="1.5"></path><path d="M1436.32 105.25L1553.41 198" stroke="#132e65" stroke-width="1.5"></path><path d="M1427.72 218.25L1427.72 218.25" stroke="#132e65" stroke-width="1.5"></path><path d="M1427.72 218.25L1553.41 198" stroke="#132e65" stroke-width="1.5"></path><path d="M1427.72 218.25L1415.08 357.2" stroke="#132e65" stroke-width="1.5"></path><path d="M1427.72 218.25L1297.91 76.51" stroke="#132e65" stroke-width="1.5"></path><path d="M1427.72 218.25L1275.83 338.28" stroke="#132e65" stroke-width="1.5"></path><path d="M1427.72 218.25L1590.24 343.7" stroke="#132e65" stroke-width="1.5"></path><path d="M1415.08 357.2L1415.08 357.2" stroke="#132e65" stroke-width="1.5"></path><path d="M1415.08 357.2L1398.64 530.36" stroke="#132e65" stroke-width="1.5"></path><path d="M1415.08 357.2L1590.24 343.7" stroke="#132e65" stroke-width="1.5"></path><path d="M1415.08 357.2L1553.41 198" stroke="#132e65" stroke-width="1.5"></path><path d="M1398.64 530.36L1398.64 530.36" stroke="#132e65" stroke-width="1.5"></path><path d="M1398.64 530.36L1396.73 663.89" stroke="#132e65" stroke-width="1.5"></path><path d="M1398.64 530.36L1551.45 676.25" stroke="#132e65" stroke-width="1.5"></path><path d="M1398.64 530.36L1242.67 684.01" stroke="#132e65" stroke-width="1.5"></path><path d="M1398.64 530.36L1275.83 338.28" stroke="#132e65" stroke-width="1.5"></path><path d="M1396.73 663.89L1396.73 663.89" stroke="#132e65" stroke-width="1.5"></path><path d="M1396.73 663.89L1551.45 676.25" stroke="#132e65" stroke-width="1.5"></path><path d="M1599.44 -110.92L1599.44 -110.92" stroke="#132e65" stroke-width="1.5"></path><path d="M1599.44 -110.92L1544.33 40.86" stroke="#132e65" stroke-width="1.5"></path><path d="M1599.44 -110.92L1436.32 105.25" stroke="#132e65" stroke-width="1.5"></path><path d="M1599.44 -110.92L1553.41 198" stroke="#132e65" stroke-width="1.5"></path><path d="M1599.44 -110.92L1274.82 -54.53" stroke="#132e65" stroke-width="1.5"></path><path d="M1544.33 40.86L1544.33 40.86" stroke="#132e65" stroke-width="1.5"></path><path d="M1544.33 40.86L1553.41 198" stroke="#132e65" stroke-width="1.5"></path><path d="M1553.41 198L1553.41 198" stroke="#132e65" stroke-width="1.5"></path><path d="M1553.41 198L1590.24 343.7" stroke="#132e65" stroke-width="1.5"></path><path d="M1553.41 198L1297.91 76.51" stroke="#132e65" stroke-width="1.5"></path><path d="M1590.24 343.7L1590.24 343.7" stroke="#132e65" stroke-width="1.5"></path><path d="M1551.45 676.25L1551.45 676.25" stroke="#132e65" stroke-width="1.5"></path><path d="M1551.45 676.25L1242.67 684.01" stroke="#132e65" stroke-width="1.5"></path><path d="M1551.45 676.25L1260.73 518.7" stroke="#132e65" stroke-width="1.5"></path><path d="M1551.45 676.25L1590.24 343.7" stroke="#132e65" stroke-width="1.5"></path><circle r="5" cx="-37.98" cy="337.79" fill="#132e65"></circle><circle r="5" cx="-59.97" cy="535.29" fill="#132e65"></circle><circle r="5" cx="-79.37" cy="677.43" fill="#132e65"></circle><circle r="5" cx="63.89" cy="400.91" fill="#132e65"></circle><circle r="5" cx="91.63" cy="501.3" fill="#132e65"></circle><circle r="5" cx="101.84" cy="644.67" fill="#132e65"></circle><circle r="5" cx="252.76" cy="401.15" fill="#132e65"></circle><circle r="5" cx="207.78" cy="690.2" fill="#132e65"></circle><circle r="5" cx="368.97" cy="338.05" fill="#132e65"></circle><circle r="5" cx="379.13" cy="507.8" fill="#132e65"></circle><circle r="5" cx="349.12" cy="686.64" fill="#132e65"></circle><circle r="5" cx="552.97" cy="383.29" fill="#132e65"></circle><circle r="5" cx="528.6" cy="526.71" fill="#132e65"></circle><circle r="5" cx="533.14" cy="706.81" fill="#132e65"></circle><circle r="5" cx="669.29" cy="369.74" fill="#132e65"></circle><circle r="5" cx="697.17" cy="558.97" fill="#132e65"></circle><circle r="5" cx="669.87" cy="666.03" fill="#132e65"></circle><circle r="5" cx="807.43" cy="255.69" fill="#132e65"></circle><circle r="5" cx="847.58" cy="345.65" fill="#132e65"></circle><circle r="5" cx="793.9" cy="502.69" fill="#132e65"></circle><circle r="5" cx="849.12" cy="640.45" fill="#132e65"></circle><circle r="5" cx="955.24" cy="-80.68" fill="#132e65"></circle><circle r="5" cx="945.31" cy="52.79" fill="#132e65"></circle><circle r="5" cx="1007.15" cy="241.03" fill="#132e65"></circle><circle r="5" cx="941.69" cy="370.63" fill="#132e65"></circle><circle r="5" cx="998.91" cy="648.85" fill="#132e65"></circle><circle r="5" cx="1138.73" cy="-63.92" fill="#132e65"></circle><circle r="5" cx="1116.83" cy="108.67" fill="#132e65"></circle><circle r="5" cx="1112.46" cy="385.86" fill="#132e65"></circle><circle r="5" cx="1088.6" cy="508.87" fill="#132e65"></circle><circle r="5" cx="1274.82" cy="-54.53" fill="#132e65"></circle><circle r="5" cx="1297.91" cy="76.51" fill="#132e65"></circle><circle r="5" cx="1275.83" cy="338.28" fill="#132e65"></circle><circle r="5" cx="1260.73" cy="518.7" fill="#132e65"></circle><circle r="5" cx="1242.67" cy="684.01" fill="#132e65"></circle><circle r="5" cx="1396.96" cy="-55.52" fill="#132e65"></circle><circle r="5" cx="1436.32" cy="105.25" fill="#132e65"></circle><circle r="5" cx="1427.72" cy="218.25" fill="#132e65"></circle><circle r="5" cx="1415.08" cy="357.2" fill="#132e65"></circle><circle r="5" cx="1398.64" cy="530.36" fill="#132e65"></circle><circle r="5" cx="1396.73" cy="663.89" fill="#132e65"></circle><circle r="5" cx="1599.44" cy="-110.92" fill="#132e65"></circle><circle r="5" cx="1544.33" cy="40.86" fill="#132e65"></circle><circle r="5" cx="1553.41" cy="198" fill="#132e65"></circle><circle r="5" cx="1590.24" cy="343.7" fill="#132e65"></circle><circle r="5" cx="1551.45" cy="676.25" fill="#132e65"></circle><path d="M39.53 692.57L39.53 692.57" stroke="hsl(228.5, 77.2%, 51.5%)" stroke-width="1.5"></path><path d="M39.53 692.57L-58.25 705.75" stroke="hsl(228.5, 77.2%, 51.5%)" stroke-width="1.5"></path><path d="M39.53 692.57L105.61 529.84" stroke="hsl(228.5, 77.2%, 51.5%)" stroke-width="1.5"></path><path d="M39.53 692.57L-54.47 538.02" stroke="hsl(228.5, 77.2%, 51.5%)" stroke-width="1.5"></path><path d="M39.53 692.57L225.97 690.39" stroke="hsl(228.5, 77.2%, 51.5%)" stroke-width="1.5"></path><path d="M212.84 523.57L212.84 523.57" stroke="hsl(228.5, 77.2%, 51.5%)" stroke-width="1.5"></path><path d="M212.84 523.57L105.61 529.84" stroke="hsl(228.5, 77.2%, 51.5%)" stroke-width="1.5"></path><path d="M212.84 523.57L356.07 524.53" stroke="hsl(228.5, 77.2%, 51.5%)" stroke-width="1.5"></path><path d="M212.84 523.57L225.97 690.39" stroke="hsl(228.5, 77.2%, 51.5%)" stroke-width="1.5"></path><path d="M212.84 523.57L39.53 692.57" stroke="hsl(228.5, 77.2%, 51.5%)" stroke-width="1.5"></path><path d="M212.84 523.57L379.08 701.36" stroke="hsl(228.5, 77.2%, 51.5%)" stroke-width="1.5"></path><path d="M521.86 505.63L521.86 505.63" stroke="hsl(228.5, 77.2%, 51.5%)" stroke-width="1.5"></path><path d="M521.86 505.63L356.07 524.53" stroke="hsl(228.5, 77.2%, 51.5%)" stroke-width="1.5"></path><path d="M521.86 505.63L695.63 493.06" stroke="hsl(228.5, 77.2%, 51.5%)" stroke-width="1.5"></path><path d="M789.48 410.3L789.48 410.3" stroke="hsl(228.5, 77.2%, 51.5%)" stroke-width="1.5"></path><path d="M789.48 410.3L675.66 401.7" stroke="hsl(228.5, 77.2%, 51.5%)" stroke-width="1.5"></path><path d="M789.48 410.3L695.63 493.06" stroke="hsl(228.5, 77.2%, 51.5%)" stroke-width="1.5"></path><path d="M789.48 410.3L1001.26 391.56" stroke="hsl(228.5, 77.2%, 51.5%)" stroke-width="1.5"></path><path d="M789.48 410.3L838.6 645.94" stroke="hsl(228.5, 77.2%, 51.5%)" stroke-width="1.5"></path><path d="M789.48 410.3L1005.69 545.35" stroke="hsl(228.5, 77.2%, 51.5%)" stroke-width="1.5"></path><path d="M789.48 410.3L703.05 668.08" stroke="hsl(228.5, 77.2%, 51.5%)" stroke-width="1.5"></path><path d="M838.6 645.94L838.6 645.94" stroke="hsl(228.5, 77.2%, 51.5%)" stroke-width="1.5"></path><path d="M838.6 645.94L955.05 706.78" stroke="hsl(228.5, 77.2%, 51.5%)" stroke-width="1.5"></path><path d="M838.6 645.94L703.05 668.08" stroke="hsl(228.5, 77.2%, 51.5%)" stroke-width="1.5"></path><path d="M1098.21 391.86L1098.21 391.86" stroke="hsl(228.5, 77.2%, 51.5%)" stroke-width="1.5"></path><path d="M1098.21 391.86L1001.26 391.56" stroke="hsl(228.5, 77.2%, 51.5%)" stroke-width="1.5"></path><path d="M1098.21 391.86L1087.67 532.84" stroke="hsl(228.5, 77.2%, 51.5%)" stroke-width="1.5"></path><path d="M1292.47 109.28L1292.47 109.28" stroke="hsl(228.5, 77.2%, 51.5%)" stroke-width="1.5"></path><path d="M1292.47 109.28L1441.07 100.15" stroke="hsl(228.5, 77.2%, 51.5%)" stroke-width="1.5"></path><path d="M1292.47 109.28L1436.32 216.3" stroke="hsl(228.5, 77.2%, 51.5%)" stroke-width="1.5"></path><path d="M1292.47 109.28L1400.02 -41.3" stroke="hsl(228.5, 77.2%, 51.5%)" stroke-width="1.5"></path><path d="M1292.47 109.28L1095.38 192.19" stroke="hsl(228.5, 77.2%, 51.5%)" stroke-width="1.5"></path><path d="M1292.47 109.28L1543.89 61.65" stroke="hsl(228.5, 77.2%, 51.5%)" stroke-width="1.5"></path><path d="M1283.91 406.01L1283.91 406.01" stroke="hsl(228.5, 77.2%, 51.5%)" stroke-width="1.5"></path><path d="M1283.91 406.01L1305.38 506.36" stroke="hsl(228.5, 77.2%, 51.5%)" stroke-width="1.5"></path><path d="M1283.91 406.01L1415.07 498.8" stroke="hsl(228.5, 77.2%, 51.5%)" stroke-width="1.5"></path><path d="M1277.33 668.95L1277.33 668.95" stroke="hsl(228.5, 77.2%, 51.5%)" stroke-width="1.5"></path><path d="M1277.33 668.95L1131.22 680.97" stroke="hsl(228.5, 77.2%, 51.5%)" stroke-width="1.5"></path><path d="M1277.33 668.95L1305.38 506.36" stroke="hsl(228.5, 77.2%, 51.5%)" stroke-width="1.5"></path><path d="M1277.33 668.95L1456.94 672.89" stroke="hsl(228.5, 77.2%, 51.5%)" stroke-width="1.5"></path><path d="M1400.02 -41.3L1400.02 -41.3" stroke="hsl(228.5, 77.2%, 51.5%)" stroke-width="1.5"></path><path d="M1400.02 -41.3L1542.9 -52.82" stroke="hsl(228.5, 77.2%, 51.5%)" stroke-width="1.5"></path><path d="M1400.02 -41.3L1441.07 100.15" stroke="hsl(228.5, 77.2%, 51.5%)" stroke-width="1.5"></path><path d="M1400.02 -41.3L1543.89 61.65" stroke="hsl(228.5, 77.2%, 51.5%)" stroke-width="1.5"></path><path d="M1436.32 216.3L1436.32 216.3" stroke="hsl(228.5, 77.2%, 51.5%)" stroke-width="1.5"></path><path d="M1436.32 216.3L1441.07 100.15" stroke="hsl(228.5, 77.2%, 51.5%)" stroke-width="1.5"></path><path d="M1436.32 216.3L1552.81 240.46" stroke="hsl(228.5, 77.2%, 51.5%)" stroke-width="1.5"></path><path d="M1436.32 216.3L1434.75 342.39" stroke="hsl(228.5, 77.2%, 51.5%)" stroke-width="1.5"></path><path d="M1436.32 216.3L1543.89 61.65" stroke="hsl(228.5, 77.2%, 51.5%)" stroke-width="1.5"></path><path d="M1436.32 216.3L1581.86 372.61" stroke="hsl(228.5, 77.2%, 51.5%)" stroke-width="1.5"></path><path d="M-54.47 538.02L-54.47 538.02" stroke="hsl(228.5, 77.2%, 51.5%)" stroke-width="1.5"></path><path d="M-54.47 538.02L105.61 529.84" stroke="hsl(228.5, 77.2%, 51.5%)" stroke-width="1.5"></path><path d="M-54.47 538.02L-58.25 705.75" stroke="hsl(228.5, 77.2%, 51.5%)" stroke-width="1.5"></path><path d="M-54.47 538.02L212.84 523.57" stroke="hsl(228.5, 77.2%, 51.5%)" stroke-width="1.5"></path><path d="M-54.47 538.02L225.97 690.39" stroke="hsl(228.5, 77.2%, 51.5%)" stroke-width="1.5"></path><path d="M-58.25 705.75L-58.25 705.75" stroke="hsl(228.5, 77.2%, 51.5%)" stroke-width="1.5"></path><path d="M-58.25 705.75L105.61 529.84" stroke="hsl(228.5, 77.2%, 51.5%)" stroke-width="1.5"></path><path d="M-58.25 705.75L225.97 690.39" stroke="hsl(228.5, 77.2%, 51.5%)" stroke-width="1.5"></path><path d="M-58.25 705.75L212.84 523.57" stroke="hsl(228.5, 77.2%, 51.5%)" stroke-width="1.5"></path><path d="M-58.25 705.75L379.08 701.36" stroke="hsl(228.5, 77.2%, 51.5%)" stroke-width="1.5"></path><path d="M105.61 529.84L105.61 529.84" stroke="hsl(228.5, 77.2%, 51.5%)" stroke-width="1.5"></path><path d="M225.97 690.39L225.97 690.39" stroke="hsl(228.5, 77.2%, 51.5%)" stroke-width="1.5"></path><path d="M225.97 690.39L379.08 701.36" stroke="hsl(228.5, 77.2%, 51.5%)" stroke-width="1.5"></path><path d="M225.97 690.39L105.61 529.84" stroke="hsl(228.5, 77.2%, 51.5%)" stroke-width="1.5"></path><path d="M225.97 690.39L356.07 524.53" stroke="hsl(228.5, 77.2%, 51.5%)" stroke-width="1.5"></path><path d="M356.07 524.53L356.07 524.53" stroke="hsl(228.5, 77.2%, 51.5%)" stroke-width="1.5"></path><path d="M379.08 701.36L379.08 701.36" stroke="hsl(228.5, 77.2%, 51.5%)" stroke-width="1.5"></path><path d="M379.08 701.36L523.56 698.8" stroke="hsl(228.5, 77.2%, 51.5%)" stroke-width="1.5"></path><path d="M523.56 698.8L523.56 698.8" stroke="hsl(228.5, 77.2%, 51.5%)" stroke-width="1.5"></path><path d="M523.56 698.8L703.05 668.08" stroke="hsl(228.5, 77.2%, 51.5%)" stroke-width="1.5"></path><path d="M523.56 698.8L521.86 505.63" stroke="hsl(228.5, 77.2%, 51.5%)" stroke-width="1.5"></path><path d="M675.66 401.7L675.66 401.7" stroke="hsl(228.5, 77.2%, 51.5%)" stroke-width="1.5"></path><path d="M675.66 401.7L695.63 493.06" stroke="hsl(228.5, 77.2%, 51.5%)" stroke-width="1.5"></path><path d="M675.66 401.7L521.86 505.63" stroke="hsl(228.5, 77.2%, 51.5%)" stroke-width="1.5"></path><path d="M675.66 401.7L703.05 668.08" stroke="hsl(228.5, 77.2%, 51.5%)" stroke-width="1.5"></path><path d="M675.66 401.7L838.6 645.94" stroke="hsl(228.5, 77.2%, 51.5%)" stroke-width="1.5"></path><path d="M675.66 401.7L1001.26 391.56" stroke="hsl(228.5, 77.2%, 51.5%)" stroke-width="1.5"></path><path d="M695.63 493.06L695.63 493.06" stroke="hsl(228.5, 77.2%, 51.5%)" stroke-width="1.5"></path><path d="M695.63 493.06L703.05 668.08" stroke="hsl(228.5, 77.2%, 51.5%)" stroke-width="1.5"></path><path d="M695.63 493.06L838.6 645.94" stroke="hsl(228.5, 77.2%, 51.5%)" stroke-width="1.5"></path><path d="M703.05 668.08L703.05 668.08" stroke="hsl(228.5, 77.2%, 51.5%)" stroke-width="1.5"></path><path d="M703.05 668.08L521.86 505.63" stroke="hsl(228.5, 77.2%, 51.5%)" stroke-width="1.5"></path><path d="M1001.26 391.56L1001.26 391.56" stroke="hsl(228.5, 77.2%, 51.5%)" stroke-width="1.5"></path><path d="M1001.26 391.56L1005.69 545.35" stroke="hsl(228.5, 77.2%, 51.5%)" stroke-width="1.5"></path><path d="M1001.26 391.56L1087.67 532.84" stroke="hsl(228.5, 77.2%, 51.5%)" stroke-width="1.5"></path><path d="M1001.26 391.56L1095.38 192.19" stroke="hsl(228.5, 77.2%, 51.5%)" stroke-width="1.5"></path><path d="M1001.26 391.56L1283.91 406.01" stroke="hsl(228.5, 77.2%, 51.5%)" stroke-width="1.5"></path><path d="M1005.69 545.35L1005.69 545.35" stroke="hsl(228.5, 77.2%, 51.5%)" stroke-width="1.5"></path><path d="M1005.69 545.35L1087.67 532.84" stroke="hsl(228.5, 77.2%, 51.5%)" stroke-width="1.5"></path><path d="M955.05 706.78L955.05 706.78" stroke="hsl(228.5, 77.2%, 51.5%)" stroke-width="1.5"></path><path d="M955.05 706.78L1005.69 545.35" stroke="hsl(228.5, 77.2%, 51.5%)" stroke-width="1.5"></path><path d="M955.05 706.78L1131.22 680.97" stroke="hsl(228.5, 77.2%, 51.5%)" stroke-width="1.5"></path><path d="M955.05 706.78L1087.67 532.84" stroke="hsl(228.5, 77.2%, 51.5%)" stroke-width="1.5"></path><path d="M955.05 706.78L703.05 668.08" stroke="hsl(228.5, 77.2%, 51.5%)" stroke-width="1.5"></path><path d="M955.05 706.78L1001.26 391.56" stroke="hsl(228.5, 77.2%, 51.5%)" stroke-width="1.5"></path><path d="M1095.38 192.19L1095.38 192.19" stroke="hsl(228.5, 77.2%, 51.5%)" stroke-width="1.5"></path><path d="M1095.38 192.19L1098.21 391.86" stroke="hsl(228.5, 77.2%, 51.5%)" stroke-width="1.5"></path><path d="M1095.38 192.19L1283.91 406.01" stroke="hsl(228.5, 77.2%, 51.5%)" stroke-width="1.5"></path><path d="M1095.38 192.19L1087.67 532.84" stroke="hsl(228.5, 77.2%, 51.5%)" stroke-width="1.5"></path><path d="M1087.67 532.84L1087.67 532.84" stroke="hsl(228.5, 77.2%, 51.5%)" stroke-width="1.5"></path><path d="M1087.67 532.84L1131.22 680.97" stroke="hsl(228.5, 77.2%, 51.5%)" stroke-width="1.5"></path><path d="M1087.67 532.84L1305.38 506.36" stroke="hsl(228.5, 77.2%, 51.5%)" stroke-width="1.5"></path><path d="M1131.22 680.97L1131.22 680.97" stroke="hsl(228.5, 77.2%, 51.5%)" stroke-width="1.5"></path><path d="M1131.22 680.97L1005.69 545.35" stroke="hsl(228.5, 77.2%, 51.5%)" stroke-width="1.5"></path><path d="M1131.22 680.97L1305.38 506.36" stroke="hsl(228.5, 77.2%, 51.5%)" stroke-width="1.5"></path><path d="M1131.22 680.97L1098.21 391.86" stroke="hsl(228.5, 77.2%, 51.5%)" stroke-width="1.5"></path><path d="M1305.38 506.36L1305.38 506.36" stroke="hsl(228.5, 77.2%, 51.5%)" stroke-width="1.5"></path><path d="M1305.38 506.36L1415.07 498.8" stroke="hsl(228.5, 77.2%, 51.5%)" stroke-width="1.5"></path><path d="M1305.38 506.36L1434.75 342.39" stroke="hsl(228.5, 77.2%, 51.5%)" stroke-width="1.5"></path><path d="M1305.38 506.36L1456.94 672.89" stroke="hsl(228.5, 77.2%, 51.5%)" stroke-width="1.5"></path><path d="M1441.07 100.15L1441.07 100.15" stroke="hsl(228.5, 77.2%, 51.5%)" stroke-width="1.5"></path><path d="M1441.07 100.15L1543.89 61.65" stroke="hsl(228.5, 77.2%, 51.5%)" stroke-width="1.5"></path><path d="M1434.75 342.39L1434.75 342.39" stroke="hsl(228.5, 77.2%, 51.5%)" stroke-width="1.5"></path><path d="M1434.75 342.39L1581.86 372.61" stroke="hsl(228.5, 77.2%, 51.5%)" stroke-width="1.5"></path><path d="M1434.75 342.39L1552.81 240.46" stroke="hsl(228.5, 77.2%, 51.5%)" stroke-width="1.5"></path><path d="M1434.75 342.39L1415.07 498.8" stroke="hsl(228.5, 77.2%, 51.5%)" stroke-width="1.5"></path><path d="M1434.75 342.39L1283.91 406.01" stroke="hsl(228.5, 77.2%, 51.5%)" stroke-width="1.5"></path><path d="M1415.07 498.8L1415.07 498.8" stroke="hsl(228.5, 77.2%, 51.5%)" stroke-width="1.5"></path><path d="M1415.07 498.8L1560.88 525.69" stroke="hsl(228.5, 77.2%, 51.5%)" stroke-width="1.5"></path><path d="M1415.07 498.8L1456.94 672.89" stroke="hsl(228.5, 77.2%, 51.5%)" stroke-width="1.5"></path><path d="M1415.07 498.8L1581.86 372.61" stroke="hsl(228.5, 77.2%, 51.5%)" stroke-width="1.5"></path><path d="M1456.94 672.89L1456.94 672.89" stroke="hsl(228.5, 77.2%, 51.5%)" stroke-width="1.5"></path><path d="M1456.94 672.89L1560.88 525.69" stroke="hsl(228.5, 77.2%, 51.5%)" stroke-width="1.5"></path><path d="M1542.9 -52.82L1542.9 -52.82" stroke="hsl(228.5, 77.2%, 51.5%)" stroke-width="1.5"></path><path d="M1542.9 -52.82L1543.89 61.65" stroke="hsl(228.5, 77.2%, 51.5%)" stroke-width="1.5"></path><path d="M1542.9 -52.82L1441.07 100.15" stroke="hsl(228.5, 77.2%, 51.5%)" stroke-width="1.5"></path><path d="M1542.9 -52.82L1436.32 216.3" stroke="hsl(228.5, 77.2%, 51.5%)" stroke-width="1.5"></path><path d="M1542.9 -52.82L1552.81 240.46" stroke="hsl(228.5, 77.2%, 51.5%)" stroke-width="1.5"></path><path d="M1542.9 -52.82L1292.47 109.28" stroke="hsl(228.5, 77.2%, 51.5%)" stroke-width="1.5"></path><path d="M1543.89 61.65L1543.89 61.65" stroke="hsl(228.5, 77.2%, 51.5%)" stroke-width="1.5"></path><path d="M1552.81 240.46L1552.81 240.46" stroke="hsl(228.5, 77.2%, 51.5%)" stroke-width="1.5"></path><path d="M1552.81 240.46L1581.86 372.61" stroke="hsl(228.5, 77.2%, 51.5%)" stroke-width="1.5"></path><path d="M1581.86 372.61L1581.86 372.61" stroke="hsl(228.5, 77.2%, 51.5%)" stroke-width="1.5"></path><path d="M1560.88 525.69L1560.88 525.69" stroke="hsl(228.5, 77.2%, 51.5%)" stroke-width="1.5"></path><path d="M1560.88 525.69L1581.86 372.61" stroke="hsl(228.5, 77.2%, 51.5%)" stroke-width="1.5"></path><circle r="25" cx="39.53" cy="692.57" fill="url(&quot;#SvgjsRadialGradient1001&quot;)"></circle><circle r="25" cx="212.84" cy="523.57" fill="url(&quot;#SvgjsRadialGradient1001&quot;)"></circle><circle r="25" cx="521.86" cy="505.63" fill="url(&quot;#SvgjsRadialGradient1001&quot;)"></circle><circle r="25" cx="789.48" cy="410.3" fill="url(&quot;#SvgjsRadialGradient1001&quot;)"></circle><circle r="25" cx="838.6" cy="645.94" fill="url(&quot;#SvgjsRadialGradient1001&quot;)"></circle><circle r="25" cx="1098.21" cy="391.86" fill="url(&quot;#SvgjsRadialGradient1001&quot;)"></circle><circle r="25" cx="1292.47" cy="109.28" fill="url(&quot;#SvgjsRadialGradient1001&quot;)"></circle><circle r="25" cx="1283.91" cy="406.01" fill="url(&quot;#SvgjsRadialGradient1001&quot;)"></circle><circle r="25" cx="1277.33" cy="668.95" fill="url(&quot;#SvgjsRadialGradient1001&quot;)"></circle><circle r="25" cx="1400.02" cy="-41.3" fill="url(&quot;#SvgjsRadialGradient1001&quot;)"></circle><circle r="25" cx="1436.32" cy="216.3" fill="url(&quot;#SvgjsRadialGradient1001&quot;)"></circle><circle r="5" cx="-54.47" cy="538.02" fill="#8b9ad9"></circle><circle r="5" cx="-58.25" cy="705.75" fill="#8b9ad9"></circle><circle r="5" cx="105.61" cy="529.84" fill="#8b9ad9"></circle><circle r="5" cx="225.97" cy="690.39" fill="#8b9ad9"></circle><circle r="5" cx="356.07" cy="524.53" fill="#8b9ad9"></circle><circle r="5" cx="379.08" cy="701.36" fill="#8b9ad9"></circle><circle r="5" cx="523.56" cy="698.8" fill="#8b9ad9"></circle><circle r="5" cx="675.66" cy="401.7" fill="#8b9ad9"></circle><circle r="5" cx="695.63" cy="493.06" fill="#8b9ad9"></circle><circle r="5" cx="703.05" cy="668.08" fill="#8b9ad9"></circle><circle r="5" cx="1001.26" cy="391.56" fill="#8b9ad9"></circle><circle r="5" cx="1005.69" cy="545.35" fill="#8b9ad9"></circle><circle r="5" cx="955.05" cy="706.78" fill="#8b9ad9"></circle><circle r="5" cx="1095.38" cy="192.19" fill="#8b9ad9"></circle><circle r="5" cx="1087.67" cy="532.84" fill="#8b9ad9"></circle><circle r="5" cx="1131.22" cy="680.97" fill="#8b9ad9"></circle><circle r="5" cx="1305.38" cy="506.36" fill="#8b9ad9"></circle><circle r="5" cx="1441.07" cy="100.15" fill="#8b9ad9"></circle><circle r="5" cx="1434.75" cy="342.39" fill="#8b9ad9"></circle><circle r="5" cx="1415.07" cy="498.8" fill="#8b9ad9"></circle><circle r="5" cx="1456.94" cy="672.89" fill="#8b9ad9"></circle><circle r="5" cx="1542.9" cy="-52.82" fill="#8b9ad9"></circle><circle r="5" cx="1543.89" cy="61.65" fill="#8b9ad9"></circle><circle r="5" cx="1552.81" cy="240.46" fill="#8b9ad9"></circle><circle r="5" cx="1581.86" cy="372.61" fill="#8b9ad9"></circle><circle r="5" cx="1560.88" cy="525.69" fill="#8b9ad9"></circle></g><defs><mask id="SvgjsMask1000"><rect width="1440" height="560" fill="#ffffff"></rect></mask><radialGradient id="SvgjsRadialGradient1001"><stop stop-color="#ffffff" offset="0.1"></stop><stop stop-color="#1735b3" offset="0.2"></stop><stop stop-color="rgba(23, 53, 179, 0)" offset="1"></stop></radialGradient></defs></svg>