<svg version="1.1" id="Layer_1" xmlns="http://www.w3.org/2000/svg" xmlns:xlink="http://www.w3.org/1999/xlink" x="0px" y="0px"
	 width="100%" viewBox="0 0 1200 1200" enable-background="new 0 0 1200 1200" xml:space="preserve">
<path fill="#000000" opacity="1.000000" stroke="none" 
	d="
M1063.000000,1201.000000 
	C708.666687,1201.000000 354.833344,1201.000000 1.000000,1201.000000 
	C1.000000,801.000000 1.000000,401.000000 1.000000,1.000000 
	C401.000000,1.000000 801.000000,1.000000 1201.000000,1.000000 
	C1201.000000,401.000000 1201.000000,801.000000 1201.000000,1201.000000 
	C1155.166626,1201.000000 1109.333374,1201.000000 1063.000000,1201.000000 
M498.307037,647.783447 
	C502.876312,647.632324 507.445557,647.481262 512.150146,647.325745 
	C511.943115,645.537354 511.984467,645.013306 511.816132,644.568787 
	C507.531250,633.256836 503.363190,621.896851 498.819824,610.689209 
	C497.740051,608.025574 498.267212,607.209290 500.469940,605.697083 
	C504.789185,602.731812 507.667908,598.338684 507.906036,593.054993 
	C508.273132,584.910339 508.681396,576.660095 507.782257,568.598511 
	C507.009247,561.667786 502.572601,557.035034 495.991272,556.123230 
	C489.496490,555.223328 482.864349,555.143738 476.287750,555.055542 
	C470.290314,554.975159 468.942719,556.515869 469.015808,562.667236 
	C469.315430,587.890259 469.645203,613.112915 470.010315,638.335083 
	C470.167908,649.220764 467.782013,647.921448 480.414093,647.998230 
	C480.580719,647.999207 480.814697,648.068420 480.903656,647.984863 
	C481.946838,647.004517 483.451599,646.169373 483.872223,644.960876 
	C484.389618,643.474426 484.059753,641.668823 483.989166,640.005737 
	C483.573181,630.202271 483.126068,620.400085 482.689453,610.597473 
	C484.237701,611.137878 484.698608,611.884949 484.997742,612.692017 
	C489.255280,624.177551 493.490936,635.671143 498.307037,647.783447 
M986.043030,646.549622 
	C992.183105,646.694458 998.393433,647.479858 1004.444641,646.815491 
	C1011.364441,646.055725 1017.347595,643.681824 1020.799744,636.126282 
	C1023.413696,630.405334 1022.814270,624.932861 1022.928894,619.313110 
	C1023.100464,610.903076 1022.414124,602.637390 1014.191956,597.808533 
	C1015.588989,595.900208 1017.042664,594.303162 1018.056641,592.463806 
	C1022.999390,583.497375 1021.879028,574.089478 1019.261658,564.873291 
	C1017.255432,557.809143 1011.446594,555.239441 1004.558350,555.034790 
	C998.876526,554.865967 993.179016,555.166809 987.501282,554.939514 
	C983.966675,554.797913 982.885864,556.101562 982.935303,559.567871 
	C983.103943,571.401855 982.873047,583.241577 983.041077,595.075562 
	C983.184387,605.162537 983.730469,615.243103 983.975403,625.329529 
	C984.112732,630.987671 983.924133,636.653687 984.059143,642.311951 
	C984.089050,643.565247 984.864319,644.800842 986.043030,646.549622 
M555.094727,635.466370 
	C555.690430,630.154968 556.834473,624.837036 556.771851,619.533386 
	C556.624634,607.073303 555.915100,594.619446 555.403381,582.164246 
	C555.183594,576.816040 555.781677,571.231079 554.422791,566.180115 
	C552.340515,558.439941 547.433411,553.176880 533.841187,554.060852 
	C523.046692,554.762939 516.835083,558.511841 516.068115,571.610107 
	C515.678284,578.267517 516.000000,584.966675 516.000000,591.646912 
	C516.000061,604.804504 515.801392,617.967285 516.142883,631.116028 
	C516.225830,634.309387 517.299255,638.095337 519.263306,640.517273 
	C529.183655,652.750732 547.919922,650.369629 555.094727,635.466370 
M809.014709,637.106995 
	C812.537781,643.811890 818.115723,646.490845 825.647156,647.141296 
	C840.411072,648.416504 848.835754,639.751465 848.112549,624.414246 
	C847.291809,607.008362 847.407043,589.559814 846.925049,572.135132 
	C846.846497,569.297058 846.100769,566.370667 845.121460,563.682556 
	C840.688171,551.513855 827.534668,551.707947 817.272766,555.024170 
	C809.132935,557.654724 807.316589,565.134399 807.142700,572.360657 
	C806.709900,590.346313 806.909729,608.350281 807.083130,626.344727 
	C807.115234,629.676575 808.213013,632.998169 809.014709,637.106995 
M960.887268,623.404114 
	C961.591614,627.695496 962.578918,631.963135 962.941772,636.283203 
	C963.711426,645.446838 964.178040,646.027039 973.242371,646.000610 
	C974.703674,645.996399 976.164978,646.000000 978.170105,646.000000 
	C977.006165,636.536987 976.000671,627.514832 974.763794,618.524475 
	C973.279053,607.732178 971.491638,596.981201 970.033813,586.185608 
	C968.854797,577.454956 968.093567,568.667542 966.890991,559.940613 
	C966.435913,556.638306 964.814514,554.318909 960.638794,554.913208 
	C957.540344,555.354248 954.267334,555.390930 951.182190,554.906494 
	C946.775879,554.214478 945.581482,557.007812 945.104736,560.123596 
	C943.259155,572.185608 941.738953,584.296936 939.973877,596.371826 
	C938.779541,604.542603 937.324585,612.675110 936.086060,620.839844 
	C934.988892,628.072449 933.949280,635.316467 933.101501,642.580872 
	C932.983093,643.595154 933.912170,645.510254 934.690613,645.710754 
	C937.505981,646.435974 940.491699,647.005798 943.355591,646.806824 
	C944.634277,646.717957 946.462219,644.850037 946.838684,643.463257 
	C947.641541,640.505432 947.776672,637.342285 947.978394,634.249756 
	C948.720093,622.878723 948.688232,622.876648 960.887268,623.404114 
M437.000000,639.296936 
	C437.000000,629.663391 437.000000,620.029846 437.000000,610.000183 
	C439.235413,610.000183 441.031952,610.101318 442.814056,609.983826 
	C454.595581,609.206543 459.457703,604.906433 461.508209,595.580078 
	C463.078278,588.439026 463.314545,580.785706 462.785675,573.458252 
	C462.140625,564.521179 457.601379,557.517517 447.836853,556.455078 
	C440.764252,555.685547 433.556763,556.006714 426.418396,556.190613 
	C425.583313,556.212158 424.170013,558.421509 424.102234,559.674927 
	C423.584137,569.254395 423.141602,578.846436 423.043030,588.438293 
	C422.882172,604.096741 422.851898,619.759827 423.045227,635.417542 
	C423.210144,648.774536 420.150604,646.923279 434.992188,646.920471 
	C435.284821,646.920410 435.577393,646.634644 435.972687,646.428650 
	C436.307861,644.408447 436.653961,642.322449 437.000000,639.296936 
M663.987122,626.233459 
	C663.989624,616.461365 663.992126,606.689331 663.994751,596.917236 
	C663.997009,588.757812 663.706238,580.579834 664.219055,572.452637 
	C664.339172,570.548706 666.857300,567.969238 668.847290,567.212097 
	C671.549683,566.184082 674.476318,567.088562 675.042297,570.900330 
	C675.468628,573.771606 675.999329,576.627319 676.569885,580.000061 
	C679.107422,580.000061 681.923340,579.761658 684.682739,580.054993 
	C688.999268,580.513794 690.393188,578.321167 689.965698,574.583252 
	C688.812317,564.497986 686.570312,557.185486 673.518616,554.194275 
	C664.068542,552.028442 650.956543,559.494019 650.154602,568.472229 
	C649.239929,578.712402 649.281433,589.049072 649.177612,599.346497 
	C649.112793,605.773254 649.555542,612.204712 649.755310,618.634521 
	C649.921387,623.981750 648.851929,629.735901 650.477417,634.590759 
	C653.651001,644.069885 659.127869,648.597351 671.701050,647.857910 
	C680.409546,647.345703 688.147278,642.325073 689.018738,630.898743 
	C689.943176,618.778137 690.447205,621.390930 679.995239,620.924255 
	C675.800232,620.736938 674.929810,622.776184 674.976562,626.236511 
	C675.001465,628.081848 675.472107,630.644043 674.488831,631.618164 
	C672.830505,633.261108 670.046692,634.979004 667.967285,634.730652 
	C663.789368,634.231506 663.824707,630.411499 663.987122,626.233459 
M793.902100,643.600464 
	C799.010986,639.377869 799.989563,633.283508 800.906067,627.326050 
	C801.431702,623.909424 801.588928,620.154480 796.205872,619.955627 
	C788.114258,619.656799 787.905151,619.701294 787.725952,626.671326 
	C787.597351,631.676147 784.887024,635.126770 780.685059,634.891479 
	C777.146118,634.693359 775.045105,632.325562 775.032593,628.726685 
	C774.967285,609.899353 774.900208,591.070618 775.096008,572.245056 
	C775.131287,568.855957 776.679138,565.939026 781.090271,565.948730 
	C785.271118,565.957886 786.467712,568.766418 786.935974,571.932983 
	C787.980408,578.995056 787.847046,579.014160 794.997864,579.000427 
	C796.619873,578.997314 798.241821,578.999939 799.554138,578.999939 
	C799.554138,574.304993 800.375366,569.952209 799.390381,566.056030 
	C797.034668,556.737732 789.703308,552.913086 780.616821,553.089966 
	C770.428894,553.288330 763.334656,559.211609 762.100464,568.439453 
	C761.462585,573.208374 762.041382,578.131836 761.945496,582.983032 
	C761.663940,597.224243 760.933044,611.470520 761.167480,625.701904 
	C761.280334,632.547424 761.787842,639.848755 769.109741,644.070129 
	C777.269348,648.774414 785.209839,648.057373 793.902100,643.600464 
M635.398499,633.999390 
	C631.981323,633.999390 628.564087,633.999390 625.368591,633.999390 
	C625.368591,623.895874 625.368591,614.501282 625.368591,604.999146 
	C629.230469,604.999146 632.733459,605.156128 636.209167,604.916565 
	C637.474182,604.829346 639.364258,604.104309 639.790649,603.145996 
	C642.378967,597.328064 639.429382,593.001282 633.141663,593.000061 
	C631.476929,592.999695 629.674561,593.400330 628.185425,592.888794 
	C626.644775,592.359619 624.271057,590.997437 624.221313,589.909912 
	C623.875061,582.343506 624.038513,574.753784 624.038513,567.000000 
	C629.328369,567.000000 633.990662,566.776306 638.620483,567.067566 
	C642.663513,567.321838 644.296387,566.158325 644.122192,561.801880 
	C643.952698,557.561768 643.393372,554.761536 638.177612,554.932800 
	C630.364685,555.189209 622.531677,555.171448 614.718018,554.926697 
	C610.903259,554.807190 609.819519,556.222351 609.944275,559.860901 
	C610.416626,573.643005 610.795593,587.431213 610.963806,601.220093 
	C611.130310,614.868958 610.998230,628.521484 611.002075,642.172363 
	C611.002747,644.495300 610.563782,647.132446 614.237976,646.996643 
	C623.145630,646.667297 632.051331,646.185120 640.961548,646.080078 
	C644.463379,646.038757 645.057678,644.477234 645.053894,641.475281 
	C645.044922,634.350586 644.753601,634.000732 635.398499,633.999390 
M587.000183,577.500122 
	C587.000610,587.152466 586.994263,596.804749 587.009216,606.457092 
	C587.011230,607.777588 587.122131,609.097839 587.177246,610.418396 
	C587.445496,616.844604 588.115601,623.289673 587.817871,629.689575 
	C587.655884,633.170837 585.186829,635.278259 580.977844,635.117676 
	C577.057617,634.968018 576.325989,632.593018 576.037537,629.730042 
	C575.117432,620.599426 575.179443,620.684998 565.999939,620.954956 
	C562.411621,621.060486 561.019287,622.630188 560.969360,626.125549 
	C560.691162,645.612122 576.368896,651.802490 591.677795,646.038147 
	C599.552673,643.072937 601.937622,636.240906 601.908142,628.759155 
	C601.813354,604.700623 601.319397,580.643616 600.958252,556.586365 
	C600.951538,556.138550 600.682922,555.694580 600.454956,555.000366 
	C597.294434,555.000366 594.151245,555.135620 591.025146,554.961792 
	C587.984314,554.792664 586.870605,555.991760 586.953918,559.027527 
	C587.113647,564.847778 587.000305,570.675598 587.000183,577.500122 
M720.000000,619.500000 
	C720.000000,602.070801 720.000000,584.641541 720.000000,566.999817 
	C723.114197,566.999817 725.632324,566.732422 728.071899,567.056580 
	C732.865112,567.693542 733.211426,564.961365 733.041077,561.335022 
	C732.885254,558.018616 733.796143,554.562073 728.248474,554.913696 
	C718.176697,555.552063 708.067993,555.983398 697.982178,555.864380 
	C693.048279,555.806213 691.660461,557.351440 691.876160,562.104980 
	C692.069153,566.358948 693.123352,568.716125 697.837708,568.028931 
	C699.143250,567.838684 700.507385,568.090210 701.831726,567.981750 
	C704.732666,567.744141 706.043884,568.762268 706.048218,571.917664 
	C706.079956,595.099670 706.276855,618.281433 706.334656,641.463440 
	C706.344421,645.379333 707.100220,648.070862 711.924194,647.035400 
	C713.039490,646.795959 714.262207,646.890442 715.414185,647.020386 
	C718.859436,647.408997 720.169250,646.052429 720.064758,642.497009 
	C719.849426,635.170349 719.999939,627.832947 720.000000,619.500000 
M857.000000,642.221008 
	C856.413879,646.134766 858.724609,647.015564 861.955688,647.006165 
	C868.787048,646.986328 875.618591,647.001404 882.450012,646.999390 
	C890.581604,646.996948 891.381470,646.023438 891.058655,637.788391 
	C890.949707,635.009949 889.996277,633.903564 887.208374,633.966309 
	C881.929688,634.085022 876.646423,634.000671 870.000183,634.000671 
	C870.000183,609.903381 870.021545,586.293152 869.989807,562.682922 
	C869.976685,552.932495 871.179993,554.214844 861.105103,553.926086 
	C857.230103,553.815002 855.783936,554.882080 855.924805,558.969360 
	C856.450439,574.218689 856.735718,589.477783 856.945007,604.735413 
	C856.989502,607.982056 856.009766,611.243713 856.064941,614.488892 
	C856.216919,623.420837 856.667542,632.347778 857.000000,642.221008 
M896.491577,589.993164 
	C896.328308,597.872192 895.960327,605.753601 896.053772,613.629578 
	C896.169556,623.393860 896.547607,633.160828 897.134460,642.907288 
	C897.219177,644.315002 899.063293,646.749084 900.156860,646.785278 
	C909.140076,647.082275 918.184265,647.466248 927.115784,646.710876 
	C932.935242,646.218750 930.722839,640.708008 930.946350,637.094971 
	C931.175110,633.397705 928.274536,634.024170 926.016724,634.009644 
	C921.088196,633.978088 916.159363,633.999939 910.000183,633.999939 
	C910.000183,609.913818 910.029175,586.453186 909.986633,562.992737 
	C909.968262,552.880554 911.345764,554.197388 900.914978,553.939331 
	C897.351257,553.851196 895.827026,554.758362 895.923706,558.658020 
	C896.175476,568.815186 896.040161,578.982056 896.491577,589.993164 
M270.895508,625.045959 
	C270.468689,625.295105 270.064148,625.707275 269.611694,625.769165 
	C261.560852,626.871338 256.539825,632.028687 254.197739,639.127014 
	C251.509308,647.275085 253.679977,654.807617 260.248718,660.750427 
	C266.571625,666.470825 273.878845,667.483887 281.632782,664.682129 
	C288.856934,662.071838 294.554688,654.320435 293.806335,646.934814 
	C293.195435,640.905823 290.874481,635.050049 289.136475,628.452148 
	C290.121185,628.363281 292.139282,627.962402 294.140289,628.034668 
	C312.311554,628.690125 310.130157,623.825134 310.004639,612.333130 
	C309.947876,607.134094 307.135529,604.109375 301.947021,604.023743 
	C295.956146,603.924805 289.960999,603.921631 283.970306,604.025635 
	C279.052521,604.110962 276.034241,607.102478 276.047424,612.051575 
	C276.058807,616.319946 276.475433,620.587280 276.721283,625.006104 
	C275.396942,625.006104 273.571869,625.006104 270.895508,625.045959 
M208.021225,554.177917 
	C208.014053,557.007996 207.951096,559.839294 208.011261,562.667969 
	C208.139023,568.675537 210.433044,570.970032 216.259094,570.997437 
	C219.588654,571.013123 222.937302,570.791260 226.239822,571.090576 
	C227.847198,571.236267 229.368484,572.331970 231.246521,573.133179 
	C220.546036,583.570190 221.360947,593.954651 226.465302,601.633728 
	C231.474518,609.169739 240.432617,612.967712 251.348434,609.009705 
	C259.353821,606.107117 265.531158,596.606689 263.781403,587.952637 
	C262.869751,583.443665 260.406189,578.835266 257.456482,575.247925 
	C252.980301,569.804260 246.137024,569.604553 240.899704,569.934021 
	C241.253235,564.451355 242.255112,559.127808 241.699463,553.972107 
	C241.323425,550.482971 238.663055,547.660950 234.048004,547.926453 
	C228.572220,548.241455 223.036987,548.339966 217.578949,547.897522 
	C212.901138,547.518311 210.058945,549.345154 208.021225,554.177917 
M216.022171,665.960815 
	C216.597046,665.662598 217.144623,665.185669 217.750885,665.093018 
	C226.073807,663.821533 230.666946,658.147644 232.476700,650.777771 
	C234.139877,644.004822 233.158173,637.329834 227.494995,631.818604 
	C221.682220,626.161743 215.243744,623.917542 208.753510,625.530701 
	C209.135178,620.729309 210.193405,615.737061 209.686447,610.909119 
	C209.340469,607.614197 207.363113,603.987061 202.740204,603.998291 
	C196.252792,604.014038 189.761780,603.872620 183.279083,604.048157 
	C179.014725,604.163574 176.057159,607.432434 176.007172,611.601074 
	C175.971252,614.594849 176.122223,617.595764 175.968765,620.582031 
	C175.785660,624.145447 177.552155,626.387939 180.782486,626.924561 
	C184.954910,627.617676 189.248825,627.545898 193.459457,628.058044 
	C195.307343,628.282776 197.078690,629.136658 199.477829,629.891479 
	C193.547424,635.608459 190.782745,641.675659 192.413589,648.726379 
	C195.180283,660.687927 202.550476,666.012451 216.022171,665.960815 
M360.000793,567.500000 
	C360.000793,605.476257 359.991791,643.452515 360.022797,681.428772 
	C360.024689,683.758545 359.030457,687.317871 364.000610,685.391357 
	C364.000610,683.596313 364.000610,681.784119 364.000610,679.971924 
	C364.000610,650.823486 364.000610,621.674988 364.000610,592.526550 
	C364.000610,568.375000 364.003418,544.223389 363.996368,520.071838 
	C363.995636,517.616821 364.570343,514.482117 360.000793,516.713135 
	C360.000793,533.228333 360.000793,549.864197 360.000793,567.500000 
M241.630615,651.986084 
	C243.021835,649.790649 243.021835,649.790649 239.682617,645.923401 
	C240.660217,643.600403 241.517502,641.563232 242.374786,639.526123 
	C241.841782,639.206299 241.308777,638.886536 240.775772,638.566711 
	C238.741943,641.070862 236.708115,643.575012 234.548248,646.234314 
	C236.961792,648.418945 238.917923,650.189575 241.630615,651.986084 
M257.142365,623.651611 
	C259.630432,624.143372 262.118469,624.635132 264.569214,625.119507 
	C265.544128,621.907532 266.361084,619.216064 267.178009,616.524536 
	C266.636200,616.213562 266.094421,615.902527 265.552612,615.591553 
	C264.345032,617.322510 263.137421,619.053467 261.706665,621.104309 
	C260.709747,620.917847 259.282867,620.442505 257.861938,620.459778 
	C256.942352,620.470947 256.031555,621.202637 255.116837,621.611511 
	C255.596436,622.107849 256.076050,622.604248 257.142365,623.651611 
M221.020477,613.558899 
	C223.564270,613.875061 226.108078,614.191284 228.054092,614.433228 
	C229.393402,616.247131 230.546783,617.809265 231.700180,619.371399 
	C232.186417,619.043457 232.672653,618.715515 233.158875,618.387573 
	C232.329651,615.691956 231.500427,612.996338 230.408478,609.446777 
	C227.234604,610.563232 224.155014,611.646545 221.020477,613.558899 
M248.071701,645.577698 
	C249.128815,643.944824 250.185928,642.311951 251.583984,640.152466 
	C247.367844,640.741089 242.970871,645.094116 244.179779,647.025696 
	C245.792358,649.602295 247.526367,653.156921 252.464798,651.385376 
	C250.783905,649.451721 249.423065,647.886230 248.071701,645.577698 
M261.400330,608.096619 
	C260.598785,608.584595 259.247986,608.935608 259.086426,609.583252 
	C258.161682,613.291382 256.207367,613.869568 253.061096,612.093079 
	C252.621017,611.844421 251.860657,612.163025 250.999252,612.241882 
	C251.059311,618.314636 256.700134,614.484436 258.559662,616.895752 
	C259.376892,615.742920 260.435913,614.687073 260.947449,613.411621 
	C261.529114,611.961304 261.621582,610.314758 261.400330,608.096619 
M226.517593,619.033691 
	C223.326294,619.351074 220.134995,619.668396 216.943695,619.985718 
	C216.818893,620.669312 216.694092,621.352905 216.569275,622.036499 
	C221.835526,621.082336 225.027222,624.133484 228.399414,626.845276 
	C228.407379,626.851685 228.609909,626.616150 229.107513,626.069885 
	C228.456711,624.148743 227.703629,621.925659 226.517593,619.033691 
z"/>
<path fill="#F6AE84" opacity="1.000000" stroke="none" 
	d="
M498.019440,647.473145 
	C493.490936,635.671143 489.255280,624.177551 484.997742,612.692017 
	C484.698608,611.884949 484.237701,611.137878 482.689453,610.597473 
	C483.126068,620.400085 483.573181,630.202271 483.989166,640.005737 
	C484.059753,641.668823 484.389618,643.474426 483.872223,644.960876 
	C483.451599,646.169373 481.946838,647.004517 480.903656,647.984863 
	C480.814697,648.068420 480.580719,647.999207 480.414093,647.998230 
	C467.782013,647.921448 470.167908,649.220764 470.010315,638.335083 
	C469.645203,613.112915 469.315430,587.890259 469.015808,562.667236 
	C468.942719,556.515869 470.290314,554.975159 476.287750,555.055542 
	C482.864349,555.143738 489.496490,555.223328 495.991272,556.123230 
	C502.572601,557.035034 507.009247,561.667786 507.782257,568.598511 
	C508.681396,576.660095 508.273132,584.910339 507.906036,593.054993 
	C507.667908,598.338684 504.789185,602.731812 500.469940,605.697083 
	C498.267212,607.209290 497.740051,608.025574 498.819824,610.689209 
	C503.363190,621.896851 507.531250,633.256836 511.816132,644.568787 
	C511.984467,645.013306 511.943115,645.537354 512.150146,647.325745 
	C507.445557,647.481262 502.876312,647.632324 498.019440,647.473145 
M493.963593,571.953613 
	C491.668640,567.179749 487.562500,567.744995 483.352356,568.220032 
	C483.352356,577.887207 483.352356,587.389343 483.352356,596.807129 
	C488.480927,597.580566 493.799011,596.790710 494.626129,591.894409 
	C495.665649,585.740601 494.327820,579.185303 493.963593,571.953613 
z"/>
<path fill="#F6AE84" opacity="1.000000" stroke="none" 
	d="
M985.669678,646.297119 
	C984.864319,644.800842 984.089050,643.565247 984.059143,642.311951 
	C983.924133,636.653687 984.112732,630.987671 983.975403,625.329529 
	C983.730469,615.243103 983.184387,605.162537 983.041077,595.075562 
	C982.873047,583.241577 983.103943,571.401855 982.935303,559.567871 
	C982.885864,556.101562 983.966675,554.797913 987.501282,554.939514 
	C993.179016,555.166809 998.876526,554.865967 1004.558350,555.034790 
	C1011.446594,555.239441 1017.255432,557.809143 1019.261658,564.873291 
	C1021.879028,574.089478 1022.999390,583.497375 1018.056641,592.463806 
	C1017.042664,594.303162 1015.588989,595.900208 1014.191956,597.808533 
	C1022.414124,602.637390 1023.100464,610.903076 1022.928894,619.313110 
	C1022.814270,624.932861 1023.413696,630.405334 1020.799744,636.126282 
	C1017.347595,643.681824 1011.364441,646.055725 1004.444641,646.815491 
	C998.393433,647.479858 992.183105,646.694458 985.669678,646.297119 
M1004.074097,605.004578 
	C1001.809875,605.004578 999.545593,605.004578 996.813660,605.004578 
	C997.331543,614.940308 997.818726,624.287354 998.304077,633.599976 
	C1006.443909,635.538025 1009.554138,632.410950 1009.092957,623.766846 
	C1008.930420,620.720093 1008.900635,617.654419 1009.030701,614.606873 
	C1009.196594,610.720093 1008.326416,607.375183 1004.074097,605.004578 
M1003.754089,567.268555 
	C1001.652710,567.175781 999.551331,567.082947 997.347595,566.985657 
	C997.347595,575.480164 997.347595,583.612793 997.347595,591.790955 
	C1001.473938,592.341187 1005.924194,592.584167 1007.669128,588.239380 
	C1009.005188,584.912720 1009.535339,580.653687 1008.690430,577.238159 
	C1007.909424,574.081238 1009.786316,569.037476 1003.754089,567.268555 
z"/>
<path fill="#F6AE84" opacity="1.000000" stroke="none" 
	d="
M555.050903,635.868896 
	C547.919922,650.369629 529.183655,652.750732 519.263306,640.517273 
	C517.299255,638.095337 516.225830,634.309387 516.142883,631.116028 
	C515.801392,617.967285 516.000061,604.804504 516.000000,591.646912 
	C516.000000,584.966675 515.678284,578.267517 516.068115,571.610107 
	C516.835083,558.511841 523.046692,554.762939 533.841187,554.060852 
	C547.433411,553.176880 552.340515,558.439941 554.422791,566.180115 
	C555.781677,571.231079 555.183594,576.816040 555.403381,582.164246 
	C555.915100,594.619446 556.624634,607.073303 556.771851,619.533386 
	C556.834473,624.837036 555.690430,630.154968 555.050903,635.868896 
M537.404602,635.992676 
	C540.981995,635.394043 542.080261,633.054932 542.016785,629.708435 
	C541.650391,610.399841 541.367310,591.089600 540.966064,571.781799 
	C540.901855,568.692932 540.230103,565.882996 536.034424,565.961670 
	C532.031921,566.036804 529.975403,567.771729 529.992920,571.853210 
	C530.019104,577.976318 529.998047,584.099548 529.998169,590.222717 
	C529.998413,602.349365 530.051147,614.476257 529.974365,626.602417 
	C529.944031,631.399292 530.801270,635.371399 537.404602,635.992676 
z"/>
<path fill="#F6AE84" opacity="1.000000" stroke="none" 
	d="
M808.916870,636.715698 
	C808.213013,632.998169 807.115234,629.676575 807.083130,626.344727 
	C806.909729,608.350281 806.709900,590.346313 807.142700,572.360657 
	C807.316589,565.134399 809.132935,557.654724 817.272766,555.024170 
	C827.534668,551.707947 840.688171,551.513855 845.121460,563.682556 
	C846.100769,566.370667 846.846497,569.297058 846.925049,572.135132 
	C847.407043,589.559814 847.291809,607.008362 848.112549,624.414246 
	C848.835754,639.751465 840.411072,648.416504 825.647156,647.141296 
	C818.115723,646.490845 812.537781,643.811890 808.916870,636.715698 
M820.996948,575.159851 
	C820.997925,577.843933 820.952209,580.529053 821.007751,583.211975 
	C821.325439,598.562988 821.680542,613.913269 821.991943,629.264343 
	C822.074951,633.356018 824.207947,635.162720 828.162781,634.991028 
	C832.177307,634.816833 834.052734,632.639526 834.006104,628.654663 
	C833.867920,616.850098 833.807922,605.044373 833.620239,593.240723 
	C833.504700,585.976013 833.580200,578.673462 832.784302,571.474792 
	C832.529968,569.174622 829.991699,565.717712 828.067505,565.399963 
	C826.064636,565.069214 823.237671,567.592163 821.379089,569.469360 
	C820.512573,570.344482 821.081482,572.640747 820.996948,575.159851 
z"/>
<path fill="#F6AE84" opacity="1.000000" stroke="none" 
	d="
M960.469238,623.226013 
	C948.688232,622.876648 948.720093,622.878723 947.978394,634.249756 
	C947.776672,637.342285 947.641541,640.505432 946.838684,643.463257 
	C946.462219,644.850037 944.634277,646.717957 943.355591,646.806824 
	C940.491699,647.005798 937.505981,646.435974 934.690613,645.710754 
	C933.912170,645.510254 932.983093,643.595154 933.101501,642.580872 
	C933.949280,635.316467 934.988892,628.072449 936.086060,620.839844 
	C937.324585,612.675110 938.779541,604.542603 939.973877,596.371826 
	C941.738953,584.296936 943.259155,572.185608 945.104736,560.123596 
	C945.581482,557.007812 946.775879,554.214478 951.182190,554.906494 
	C954.267334,555.390930 957.540344,555.354248 960.638794,554.913208 
	C964.814514,554.318909 966.435913,556.638306 966.890991,559.940613 
	C968.093567,568.667542 968.854797,577.454956 970.033813,586.185608 
	C971.491638,596.981201 973.279053,607.732178 974.763794,618.524475 
	C976.000671,627.514832 977.006165,636.536987 978.170105,646.000000 
	C976.164978,646.000000 974.703674,645.996399 973.242371,646.000610 
	C964.178040,646.027039 963.711426,645.446838 962.941772,636.283203 
	C962.578918,631.963135 961.591614,627.695496 960.469238,623.226013 
M952.061035,602.782349 
	C952.061035,605.460205 952.061035,608.138062 952.061035,610.763184 
	C954.445312,610.763184 957.052185,610.763184 960.178162,610.763184 
	C958.912537,599.898865 957.680420,589.321533 956.448242,578.744263 
	C955.110413,582.367615 954.139832,586.148804 953.585327,589.990112 
	C953.011780,593.964050 952.842102,597.996277 952.061035,602.782349 
z"/>
<path fill="#F6AE84" opacity="1.000000" stroke="none" 
	d="
M437.000031,639.766724 
	C436.653961,642.322449 436.307861,644.408447 435.972687,646.428650 
	C435.577393,646.634644 435.284821,646.920410 434.992188,646.920471 
	C420.150604,646.923279 423.210144,648.774536 423.045227,635.417542 
	C422.851898,619.759827 422.882172,604.096741 423.043030,588.438293 
	C423.141602,578.846436 423.584137,569.254395 424.102234,559.674927 
	C424.170013,558.421509 425.583313,556.212158 426.418396,556.190613 
	C433.556763,556.006714 440.764252,555.685547 447.836853,556.455078 
	C457.601379,557.517517 462.140625,564.521179 462.785675,573.458252 
	C463.314545,580.785706 463.078278,588.439026 461.508209,595.580078 
	C459.457703,604.906433 454.595581,609.206543 442.814056,609.983826 
	C441.031952,610.101318 439.235413,610.000183 437.000000,610.000183 
	C437.000000,620.029846 437.000000,629.663391 437.000031,639.766724 
M440.358948,597.000061 
	C446.103790,596.917236 448.720062,594.358032 448.972900,588.311646 
	C449.118011,584.841187 449.030060,581.359436 448.993958,577.883301 
	C448.911041,569.903381 445.240875,567.035461 437.000641,568.690125 
	C437.000641,577.073303 436.916016,585.504150 437.108917,593.928589 
	C437.132751,594.969177 438.635498,595.975952 440.358948,597.000061 
z"/>
<path fill="#F6AE84" opacity="1.000000" stroke="none" 
	d="
M663.992310,626.631287 
	C663.824707,630.411499 663.789368,634.231506 667.967285,634.730652 
	C670.046692,634.979004 672.830505,633.261108 674.488831,631.618164 
	C675.472107,630.644043 675.001465,628.081848 674.976562,626.236511 
	C674.929810,622.776184 675.800232,620.736938 679.995239,620.924255 
	C690.447205,621.390930 689.943176,618.778137 689.018738,630.898743 
	C688.147278,642.325073 680.409546,647.345703 671.701050,647.857910 
	C659.127869,648.597351 653.651001,644.069885 650.477417,634.590759 
	C648.851929,629.735901 649.921387,623.981750 649.755310,618.634521 
	C649.555542,612.204712 649.112793,605.773254 649.177612,599.346497 
	C649.281433,589.049072 649.239929,578.712402 650.154602,568.472229 
	C650.956543,559.494019 664.068542,552.028442 673.518616,554.194275 
	C686.570312,557.185486 688.812317,564.497986 689.965698,574.583252 
	C690.393188,578.321167 688.999268,580.513794 684.682739,580.054993 
	C681.923340,579.761658 679.107422,580.000061 676.569885,580.000061 
	C675.999329,576.627319 675.468628,573.771606 675.042297,570.900330 
	C674.476318,567.088562 671.549683,566.184082 668.847290,567.212097 
	C666.857300,567.969238 664.339172,570.548706 664.219055,572.452637 
	C663.706238,580.579834 663.997009,588.757812 663.994751,596.917236 
	C663.992126,606.689331 663.989624,616.461365 663.992310,626.631287 
z"/>
<path fill="#F6AE84" opacity="1.000000" stroke="none" 
	d="
M793.566650,643.781982 
	C785.209839,648.057373 777.269348,648.774414 769.109741,644.070129 
	C761.787842,639.848755 761.280334,632.547424 761.167480,625.701904 
	C760.933044,611.470520 761.663940,597.224243 761.945496,582.983032 
	C762.041382,578.131836 761.462585,573.208374 762.100464,568.439453 
	C763.334656,559.211609 770.428894,553.288330 780.616821,553.089966 
	C789.703308,552.913086 797.034668,556.737732 799.390381,566.056030 
	C800.375366,569.952209 799.554138,574.304993 799.554138,578.999939 
	C798.241821,578.999939 796.619873,578.997314 794.997864,579.000427 
	C787.847046,579.014160 787.980408,578.995056 786.935974,571.932983 
	C786.467712,568.766418 785.271118,565.957886 781.090271,565.948730 
	C776.679138,565.939026 775.131287,568.855957 775.096008,572.245056 
	C774.900208,591.070618 774.967285,609.899353 775.032593,628.726685 
	C775.045105,632.325562 777.146118,634.693359 780.685059,634.891479 
	C784.887024,635.126770 787.597351,631.676147 787.725952,626.671326 
	C787.905151,619.701294 788.114258,619.656799 796.205872,619.955627 
	C801.588928,620.154480 801.431702,623.909424 800.906067,627.326050 
	C799.989563,633.283508 799.010986,639.377869 793.566650,643.781982 
z"/>
<path fill="#F6AE84" opacity="1.000000" stroke="none" 
	d="
M635.875916,633.999390 
	C644.753601,634.000732 645.044922,634.350586 645.053894,641.475281 
	C645.057678,644.477234 644.463379,646.038757 640.961548,646.080078 
	C632.051331,646.185120 623.145630,646.667297 614.237976,646.996643 
	C610.563782,647.132446 611.002747,644.495300 611.002075,642.172363 
	C610.998230,628.521484 611.130310,614.868958 610.963806,601.220093 
	C610.795593,587.431213 610.416626,573.643005 609.944275,559.860901 
	C609.819519,556.222351 610.903259,554.807190 614.718018,554.926697 
	C622.531677,555.171448 630.364685,555.189209 638.177612,554.932800 
	C643.393372,554.761536 643.952698,557.561768 644.122192,561.801880 
	C644.296387,566.158325 642.663513,567.321838 638.620483,567.067566 
	C633.990662,566.776306 629.328369,567.000000 624.038513,567.000000 
	C624.038513,574.753784 623.875061,582.343506 624.221313,589.909912 
	C624.271057,590.997437 626.644775,592.359619 628.185425,592.888794 
	C629.674561,593.400330 631.476929,592.999695 633.141663,593.000061 
	C639.429382,593.001282 642.378967,597.328064 639.790649,603.145996 
	C639.364258,604.104309 637.474182,604.829346 636.209167,604.916565 
	C632.733459,605.156128 629.230469,604.999146 625.368591,604.999146 
	C625.368591,614.501282 625.368591,623.895874 625.368591,633.999390 
	C628.564087,633.999390 631.981323,633.999390 635.875916,633.999390 
z"/>
<path fill="#F6AE84" opacity="1.000000" stroke="none" 
	d="
M587.000183,577.000183 
	C587.000305,570.675598 587.113647,564.847778 586.953918,559.027527 
	C586.870605,555.991760 587.984314,554.792664 591.025146,554.961792 
	C594.151245,555.135620 597.294434,555.000366 600.454956,555.000366 
	C600.682922,555.694580 600.951538,556.138550 600.958252,556.586365 
	C601.319397,580.643616 601.813354,604.700623 601.908142,628.759155 
	C601.937622,636.240906 599.552673,643.072937 591.677795,646.038147 
	C576.368896,651.802490 560.691162,645.612122 560.969360,626.125549 
	C561.019287,622.630188 562.411621,621.060486 565.999939,620.954956 
	C575.179443,620.684998 575.117432,620.599426 576.037537,629.730042 
	C576.325989,632.593018 577.057617,634.968018 580.977844,635.117676 
	C585.186829,635.278259 587.655884,633.170837 587.817871,629.689575 
	C588.115601,623.289673 587.445496,616.844604 587.177246,610.418396 
	C587.122131,609.097839 587.011230,607.777588 587.009216,606.457092 
	C586.994263,596.804749 587.000610,587.152466 587.000183,577.000183 
z"/>
<path fill="#F6AE84" opacity="1.000000" stroke="none" 
	d="
M720.000000,620.000000 
	C719.999939,627.832947 719.849426,635.170349 720.064758,642.497009 
	C720.169250,646.052429 718.859436,647.408997 715.414185,647.020386 
	C714.262207,646.890442 713.039490,646.795959 711.924194,647.035400 
	C707.100220,648.070862 706.344421,645.379333 706.334656,641.463440 
	C706.276855,618.281433 706.079956,595.099670 706.048218,571.917664 
	C706.043884,568.762268 704.732666,567.744141 701.831726,567.981750 
	C700.507385,568.090210 699.143250,567.838684 697.837708,568.028931 
	C693.123352,568.716125 692.069153,566.358948 691.876160,562.104980 
	C691.660461,557.351440 693.048279,555.806213 697.982178,555.864380 
	C708.067993,555.983398 718.176697,555.552063 728.248474,554.913696 
	C733.796143,554.562073 732.885254,558.018616 733.041077,561.335022 
	C733.211426,564.961365 732.865112,567.693542 728.071899,567.056580 
	C725.632324,566.732422 723.114197,566.999817 720.000000,566.999817 
	C720.000000,584.641541 720.000000,602.070801 720.000000,620.000000 
z"/>
<path fill="#F6AE84" opacity="1.000000" stroke="none" 
	d="
M857.000000,641.748840 
	C856.667542,632.347778 856.216919,623.420837 856.064941,614.488892 
	C856.009766,611.243713 856.989502,607.982056 856.945007,604.735413 
	C856.735718,589.477783 856.450439,574.218689 855.924805,558.969360 
	C855.783936,554.882080 857.230103,553.815002 861.105103,553.926086 
	C871.179993,554.214844 869.976685,552.932495 869.989807,562.682922 
	C870.021545,586.293152 870.000183,609.903381 870.000183,634.000671 
	C876.646423,634.000671 881.929688,634.085022 887.208374,633.966309 
	C889.996277,633.903564 890.949707,635.009949 891.058655,637.788391 
	C891.381470,646.023438 890.581604,646.996948 882.450012,646.999390 
	C875.618591,647.001404 868.787048,646.986328 861.955688,647.006165 
	C858.724609,647.015564 856.413879,646.134766 857.000000,641.748840 
z"/>
<path fill="#F6AE84" opacity="1.000000" stroke="none" 
	d="
M896.275391,589.569092 
	C896.040161,578.982056 896.175476,568.815186 895.923706,558.658020 
	C895.827026,554.758362 897.351257,553.851196 900.914978,553.939331 
	C911.345764,554.197388 909.968262,552.880554 909.986633,562.992737 
	C910.029175,586.453186 910.000183,609.913818 910.000183,633.999939 
	C916.159363,633.999939 921.088196,633.978088 926.016724,634.009644 
	C928.274536,634.024170 931.175110,633.397705 930.946350,637.094971 
	C930.722839,640.708008 932.935242,646.218750 927.115784,646.710876 
	C918.184265,647.466248 909.140076,647.082275 900.156860,646.785278 
	C899.063293,646.749084 897.219177,644.315002 897.134460,642.907288 
	C896.547607,633.160828 896.169556,623.393860 896.053772,613.629578 
	C895.960327,605.753601 896.328308,597.872192 896.275391,589.569092 
z"/>
<path fill="#F6AE84" opacity="1.000000" stroke="none" 
	d="
M271.321167,625.026001 
	C273.571869,625.006104 275.396942,625.006104 276.721283,625.006104 
	C276.475433,620.587280 276.058807,616.319946 276.047424,612.051575 
	C276.034241,607.102478 279.052521,604.110962 283.970306,604.025635 
	C289.960999,603.921631 295.956146,603.924805 301.947021,604.023743 
	C307.135529,604.109375 309.947876,607.134094 310.004639,612.333130 
	C310.130157,623.825134 312.311554,628.690125 294.140289,628.034668 
	C292.139282,627.962402 290.121185,628.363281 289.136475,628.452148 
	C290.874481,635.050049 293.195435,640.905823 293.806335,646.934814 
	C294.554688,654.320435 288.856934,662.071838 281.632782,664.682129 
	C273.878845,667.483887 266.571625,666.470825 260.248718,660.750427 
	C253.679977,654.807617 251.509308,647.275085 254.197739,639.127014 
	C256.539825,632.028687 261.560852,626.871338 269.611694,625.769165 
	C270.064148,625.707275 270.468689,625.295105 271.321167,625.026001 
M280.902557,623.360657 
	C281.861725,625.055725 282.820923,626.750793 283.115692,627.271790 
	C286.656738,626.476440 289.915314,625.534973 293.240509,625.067017 
	C295.686646,624.722839 298.246643,625.228638 300.708130,624.943481 
	C304.420502,624.513428 307.327637,623.036987 307.022491,618.476990 
	C306.889587,616.490295 307.016357,614.487183 306.994812,612.491882 
	C306.956360,608.933472 305.088837,607.070129 301.584808,607.021729 
	C296.098053,606.946045 290.568176,606.614624 285.142181,607.193726 
	C282.985962,607.423828 279.565338,609.581909 279.329376,611.234680 
	C278.795715,614.972229 279.885284,618.941528 280.902557,623.360657 
M259.029022,636.815613 
	C254.466156,646.085693 256.136932,652.864075 264.622772,659.509644 
	C265.317200,653.281738 267.556000,650.193970 272.146088,650.094055 
	C275.023560,650.031372 278.396149,650.098328 280.667938,651.515625 
	C282.726074,652.799561 283.593323,655.992432 284.962769,658.304993 
	C293.282318,650.941895 293.067963,640.067444 284.946747,632.900940 
	C283.763458,633.808594 282.531891,634.753235 281.306061,635.693481 
	C283.734100,640.063049 282.937622,644.042480 279.208679,646.860657 
	C275.693756,649.517212 271.258270,649.291931 268.186371,646.370850 
	C265.775208,644.077942 263.698914,640.567078 266.076111,636.783936 
	C266.973480,635.355896 268.117035,633.452942 269.499146,633.085327 
	C272.748596,632.220947 276.209381,632.151184 279.999451,631.711853 
	C280.914703,628.078979 277.289093,628.288391 274.880066,628.086548 
	C268.134613,627.521240 263.615417,631.666809 259.029022,636.815613 
M273.644928,653.005859 
	C270.971375,654.027222 267.594788,654.516174 268.230011,658.574036 
	C268.804138,662.241577 271.072327,663.364685 274.825684,663.123596 
	C278.328827,662.898499 279.899506,661.360046 280.295074,658.194824 
	C280.858246,653.688660 276.913574,654.153503 273.644928,653.005859 
M278.749695,637.257568 
	C278.283722,636.788757 277.832764,636.303772 277.349243,635.853760 
	C275.074341,633.736633 272.375763,633.537842 270.720490,636.016357 
	C269.541016,637.782410 268.715424,641.063721 269.600922,642.570496 
	C270.487152,644.078735 273.820618,645.076477 275.857788,644.776978 
	C279.481598,644.244263 279.126495,640.868835 278.749695,637.257568 
z"/>
<path fill="#F6AE84" opacity="1.000000" stroke="none" 
	d="
M208.105164,553.756226 
	C210.058945,549.345154 212.901138,547.518311 217.578949,547.897522 
	C223.036987,548.339966 228.572220,548.241455 234.048004,547.926453 
	C238.663055,547.660950 241.323425,550.482971 241.699463,553.972107 
	C242.255112,559.127808 241.253235,564.451355 240.899704,569.934021 
	C246.137024,569.604553 252.980301,569.804260 257.456482,575.247925 
	C260.406189,578.835266 262.869751,583.443665 263.781403,587.952637 
	C265.531158,596.606689 259.353821,606.107117 251.348434,609.009705 
	C240.432617,612.967712 231.474518,609.169739 226.465302,601.633728 
	C221.360947,593.954651 220.546036,583.570190 231.246521,573.133179 
	C229.368484,572.331970 227.847198,571.236267 226.239822,571.090576 
	C222.937302,570.791260 219.588654,571.013123 216.259094,570.997437 
	C210.433044,570.970032 208.139023,568.675537 208.011261,562.667969 
	C207.951096,559.839294 208.014053,557.007996 208.105164,553.756226 
M260.612701,592.874390 
	C262.556366,581.657532 254.582993,573.380371 243.691956,572.502380 
	C242.040237,572.369263 237.245331,571.952393 239.515991,576.859131 
	C245.476364,575.085510 248.823822,575.987244 250.991913,580.095032 
	C252.926956,583.761353 253.327179,587.348206 249.965073,590.548584 
	C246.633133,593.720276 242.885559,593.885071 239.179810,591.602722 
	C234.922913,588.980896 234.217087,584.951843 236.534500,579.282837 
	C235.566086,578.157288 234.614029,577.050781 233.692993,575.980347 
	C223.200882,584.203247 224.428772,598.097473 234.705780,604.661072 
	C234.171494,597.771362 236.485168,594.508118 242.262527,594.002625 
	C249.497894,593.369568 252.650223,596.086426 253.288376,603.505371 
	C253.724655,603.746826 254.160934,603.988281 254.597214,604.229797 
	C256.418793,600.658386 258.240356,597.087036 260.612701,592.874390 
M238.822403,564.647888 
	C238.881622,562.327087 238.986313,560.006409 238.990967,557.685547 
	C239.002029,552.170776 237.952118,551.073425 232.461548,551.011658 
	C227.312286,550.953796 222.136642,550.706726 217.024612,551.146912 
	C215.044342,551.317444 212.391769,552.673889 211.447403,554.302856 
	C207.641876,560.867126 211.953781,567.767090 219.354630,568.079041 
	C224.528442,568.297058 230.504089,565.807251 234.233200,571.779602 
	C235.646225,569.476379 236.944504,567.360107 238.822403,564.647888 
M247.740707,606.745239 
	C251.156036,601.608582 250.406586,598.106201 245.274567,597.276855 
	C243.167740,596.936340 240.209152,597.785767 238.706390,599.216248 
	C237.697357,600.176758 237.978043,603.397583 238.795853,605.058411 
	C239.355331,606.194641 241.796967,606.532776 243.466797,606.947388 
	C244.549820,607.216370 245.758255,606.980530 247.740707,606.745239 
M240.056686,580.452393 
	C237.432953,583.182007 237.214294,586.305298 240.238998,588.407104 
	C241.754669,589.460327 244.875351,589.406921 246.671265,588.569519 
	C249.316345,587.336182 249.965988,584.511353 248.270966,581.855896 
	C246.422226,578.959717 243.864563,578.065186 240.056686,580.452393 
z"/>
<path fill="#F6AE84" opacity="1.000000" stroke="none" 
	d="
M215.585358,665.978027 
	C202.550476,666.012451 195.180283,660.687927 192.413589,648.726379 
	C190.782745,641.675659 193.547424,635.608459 199.477829,629.891479 
	C197.078690,629.136658 195.307343,628.282776 193.459457,628.058044 
	C189.248825,627.545898 184.954910,627.617676 180.782486,626.924561 
	C177.552155,626.387939 175.785660,624.145447 175.968765,620.582031 
	C176.122223,617.595764 175.971252,614.594849 176.007172,611.601074 
	C176.057159,607.432434 179.014725,604.163574 183.279083,604.048157 
	C189.761780,603.872620 196.252792,604.014038 202.740204,603.998291 
	C207.363113,603.987061 209.340469,607.614197 209.686447,610.909119 
	C210.193405,615.737061 209.135178,620.729309 208.753510,625.530701 
	C215.243744,623.917542 221.682220,626.161743 227.494995,631.818604 
	C233.158173,637.329834 234.139877,644.004822 232.476700,650.777771 
	C230.666946,658.147644 226.073807,663.821533 217.750885,665.093018 
	C217.144623,665.185669 216.597046,665.662598 215.585358,665.978027 
M205.238541,634.261108 
	C199.253204,632.505066 197.347672,636.795044 196.153641,641.008423 
	C194.031937,648.495300 196.956787,654.916748 203.843750,659.439514 
	C204.247604,650.843750 205.930878,649.460571 215.329575,650.000916 
	C220.637436,650.306091 222.620087,653.046875 222.283875,659.614441 
	C230.570343,653.299927 232.277145,646.068115 227.600128,637.089294 
	C223.734482,629.668091 215.251205,626.609924 206.209702,629.469971 
	C206.054565,631.044006 205.893845,632.674866 205.807877,634.221436 
	C205.807877,634.221436 205.891541,634.145935 205.238541,634.261108 
M185.816467,624.999878 
	C191.575363,625.697205 198.109055,622.576233 202.133514,628.276489 
	C203.136169,626.439453 203.955948,624.697449 204.988556,623.092285 
	C207.706451,618.867371 207.772308,614.336243 205.864334,610.001831 
	C204.112106,606.021179 200.069366,607.105286 196.716034,607.010864 
	C194.555252,606.950012 192.391373,606.999451 190.228882,606.999451 
	C178.974564,606.999512 179.153854,607.003357 178.912811,618.157227 
	C178.814957,622.686340 180.233932,625.048828 185.816467,624.999878 
M207.001312,657.519165 
	C208.235489,659.342529 209.229370,662.397400 210.761017,662.696289 
	C212.973785,663.128052 216.160812,662.208496 217.856674,660.675659 
	C219.746384,658.967590 220.175629,655.944885 217.150848,654.035034 
	C213.411850,651.674194 209.359802,652.747192 207.001312,657.519165 
z"/>
<path fill="#F5AD83" opacity="1.000000" stroke="none" 
	d="
M360.000793,567.000000 
	C360.000793,549.864197 360.000793,533.228333 360.000793,516.713135 
	C364.570343,514.482117 363.995636,517.616821 363.996368,520.071838 
	C364.003418,544.223389 364.000610,568.375000 364.000610,592.526550 
	C364.000610,621.674988 364.000610,650.823486 364.000610,679.971924 
	C364.000610,681.784119 364.000610,683.596313 364.000610,685.391357 
	C359.030457,687.317871 360.024689,683.758545 360.022797,681.428772 
	C359.991791,643.452515 360.000793,605.476257 360.000793,567.000000 
z"/>
<path fill="#F6AE84" opacity="1.000000" stroke="none" 
	d="
M241.252319,651.973145 
	C238.917923,650.189575 236.961792,648.418945 234.548248,646.234314 
	C236.708115,643.575012 238.741943,641.070862 240.775772,638.566711 
	C241.308777,638.886536 241.841782,639.206299 242.374786,639.526123 
	C241.517502,641.563232 240.660217,643.600403 239.682617,645.923401 
	C243.021835,649.790649 243.021835,649.790649 241.252319,651.973145 
z"/>
<path fill="#F6AE84" opacity="1.000000" stroke="none" 
	d="
M256.848999,623.376099 
	C256.076050,622.604248 255.596436,622.107849 255.116821,621.611450 
	C256.031555,621.202637 256.942352,620.470947 257.861938,620.459778 
	C259.282867,620.442505 260.709747,620.917847 261.706665,621.104309 
	C263.137421,619.053467 264.345032,617.322510 265.552612,615.591553 
	C266.094421,615.902527 266.636200,616.213562 267.178009,616.524536 
	C266.361084,619.216064 265.544128,621.907532 264.569214,625.119507 
	C262.118469,624.635132 259.630432,624.143372 256.848999,623.376099 
z"/>
<path fill="#F6AE84" opacity="1.000000" stroke="none" 
	d="
M221.047943,613.144409 
	C224.155014,611.646545 227.234604,610.563232 230.408478,609.446777 
	C231.500427,612.996338 232.329651,615.691956 233.158875,618.387573 
	C232.672653,618.715515 232.186417,619.043457 231.700180,619.371399 
	C230.546783,617.809265 229.393402,616.247131 228.054092,614.433228 
	C226.108078,614.191284 223.564270,613.875061 221.047943,613.144409 
z"/>
<path fill="#F6AE84" opacity="1.000000" stroke="none" 
	d="
M248.066956,645.949219 
	C249.423065,647.886230 250.783905,649.451721 252.464798,651.385376 
	C247.526367,653.156921 245.792358,649.602295 244.179779,647.025696 
	C242.970871,645.094116 247.367844,640.741089 251.583984,640.152466 
	C250.185928,642.311951 249.128815,643.944824 248.066956,645.949219 
z"/>
<path fill="#F6AE84" opacity="1.000000" stroke="none" 
	d="
M261.663513,608.425049 
	C261.621582,610.314758 261.529114,611.961304 260.947449,613.411621 
	C260.435913,614.687073 259.376892,615.742920 258.559662,616.895752 
	C256.700134,614.484436 251.059311,618.314636 250.999252,612.241882 
	C251.860657,612.163025 252.621017,611.844421 253.061096,612.093079 
	C256.207367,613.869568 258.161682,613.291382 259.086426,609.583252 
	C259.247986,608.935608 260.598785,608.584595 261.663513,608.425049 
z"/>
<path fill="#F6AE84" opacity="1.000000" stroke="none" 
	d="
M226.734070,619.368164 
	C227.703629,621.925659 228.456711,624.148743 229.107513,626.069885 
	C228.609909,626.616150 228.407379,626.851685 228.399414,626.845276 
	C225.027222,624.133484 221.835526,621.082336 216.569275,622.036499 
	C216.694092,621.352905 216.818893,620.669312 216.943695,619.985718 
	C220.134995,619.668396 223.326294,619.351074 226.734070,619.368164 
z"/>
<path fill="#000000" opacity="1.000000" stroke="none" 
	d="
M493.989746,572.378418 
	C494.327820,579.185303 495.665649,585.740601 494.626129,591.894409 
	C493.799011,596.790710 488.480927,597.580566 483.352356,596.807129 
	C483.352356,587.389343 483.352356,577.887207 483.352356,568.220032 
	C487.562500,567.744995 491.668640,567.179749 493.989746,572.378418 
z"/>
<path fill="#000000" opacity="1.000000" stroke="none" 
	d="
M1004.515991,605.022888 
	C1008.326416,607.375183 1009.196594,610.720093 1009.030701,614.606873 
	C1008.900635,617.654419 1008.930420,620.720093 1009.092957,623.766846 
	C1009.554138,632.410950 1006.443909,635.538025 998.304077,633.599976 
	C997.818726,624.287354 997.331543,614.940308 996.813660,605.004578 
	C999.545593,605.004578 1001.809875,605.004578 1004.515991,605.022888 
z"/>
<path fill="#000000" opacity="1.000000" stroke="none" 
	d="
M1004.055420,567.565613 
	C1009.786316,569.037476 1007.909424,574.081238 1008.690430,577.238159 
	C1009.535339,580.653687 1009.005188,584.912720 1007.669128,588.239380 
	C1005.924194,592.584167 1001.473938,592.341187 997.347595,591.790955 
	C997.347595,583.612793 997.347595,575.480164 997.347595,566.985657 
	C999.551331,567.082947 1001.652710,567.175781 1004.055420,567.565613 
z"/>
<path fill="#000000" opacity="1.000000" stroke="none" 
	d="
M536.990112,635.992676 
	C530.801270,635.371399 529.944031,631.399292 529.974365,626.602417 
	C530.051147,614.476257 529.998413,602.349365 529.998169,590.222717 
	C529.998047,584.099548 530.019104,577.976318 529.992920,571.853210 
	C529.975403,567.771729 532.031921,566.036804 536.034424,565.961670 
	C540.230103,565.882996 540.901855,568.692932 540.966064,571.781799 
	C541.367310,591.089600 541.650391,610.399841 542.016785,629.708435 
	C542.080261,633.054932 540.981995,635.394043 536.990112,635.992676 
z"/>
<path fill="#000000" opacity="1.000000" stroke="none" 
	d="
M820.998352,574.726318 
	C821.081482,572.640747 820.512573,570.344482 821.379089,569.469360 
	C823.237671,567.592163 826.064636,565.069214 828.067505,565.399963 
	C829.991699,565.717712 832.529968,569.174622 832.784302,571.474792 
	C833.580200,578.673462 833.504700,585.976013 833.620239,593.240723 
	C833.807922,605.044373 833.867920,616.850098 834.006104,628.654663 
	C834.052734,632.639526 832.177307,634.816833 828.162781,634.991028 
	C824.207947,635.162720 822.074951,633.356018 821.991943,629.264343 
	C821.680542,613.913269 821.325439,598.562988 821.007751,583.211975 
	C820.952209,580.529053 820.997925,577.843933 820.998352,574.726318 
z"/>
<path fill="#000000" opacity="1.000000" stroke="none" 
	d="
M952.278442,602.392700 
	C952.842102,597.996277 953.011780,593.964050 953.585327,589.990112 
	C954.139832,586.148804 955.110413,582.367615 956.448242,578.744263 
	C957.680420,589.321533 958.912537,599.898865 960.178162,610.763184 
	C957.052185,610.763184 954.445312,610.763184 952.061035,610.763184 
	C952.061035,608.138062 952.061035,605.460205 952.278442,602.392700 
z"/>
<path fill="#000000" opacity="1.000000" stroke="none" 
	d="
M439.905945,596.999207 
	C438.635498,595.975952 437.132751,594.969177 437.108917,593.928589 
	C436.916016,585.504150 437.000641,577.073303 437.000641,568.690125 
	C445.240875,567.035461 448.911041,569.903381 448.993958,577.883301 
	C449.030060,581.359436 449.118011,584.841187 448.972900,588.311646 
	C448.720062,594.358032 446.103790,596.917236 439.905945,596.999207 
z"/>
<path fill="#000000" opacity="1.000000" stroke="none" 
	d="
M280.608612,623.088623 
	C279.885284,618.941528 278.795715,614.972229 279.329376,611.234680 
	C279.565338,609.581909 282.985962,607.423828 285.142181,607.193726 
	C290.568176,606.614624 296.098053,606.946045 301.584808,607.021729 
	C305.088837,607.070129 306.956360,608.933472 306.994812,612.491882 
	C307.016357,614.487183 306.889587,616.490295 307.022491,618.476990 
	C307.327637,623.036987 304.420502,624.513428 300.708130,624.943481 
	C298.246643,625.228638 295.686646,624.722839 293.240509,625.067017 
	C289.915314,625.534973 286.656738,626.476440 283.115692,627.271790 
	C282.820923,626.750793 281.861725,625.055725 280.608612,623.088623 
z"/>
<path fill="#000000" opacity="1.000000" stroke="none" 
	d="
M259.194183,636.474670 
	C263.615417,631.666809 268.134613,627.521240 274.880066,628.086548 
	C277.289093,628.288391 280.914703,628.078979 279.999451,631.711853 
	C276.209381,632.151184 272.748596,632.220947 269.499146,633.085327 
	C268.117035,633.452942 266.973480,635.355896 266.076111,636.783936 
	C263.698914,640.567078 265.775208,644.077942 268.186371,646.370850 
	C271.258270,649.291931 275.693756,649.517212 279.208679,646.860657 
	C282.937622,644.042480 283.734100,640.063049 281.306061,635.693481 
	C282.531891,634.753235 283.763458,633.808594 284.946747,632.900940 
	C293.067963,640.067444 293.282318,650.941895 284.962769,658.304993 
	C283.593323,655.992432 282.726074,652.799561 280.667938,651.515625 
	C278.396149,650.098328 275.023560,650.031372 272.146088,650.094055 
	C267.556000,650.193970 265.317200,653.281738 264.622772,659.509644 
	C256.136932,652.864075 254.466156,646.085693 259.194183,636.474670 
z"/>
<path fill="#000000" opacity="1.000000" stroke="none" 
	d="
M274.043427,653.006226 
	C276.913574,654.153503 280.858246,653.688660 280.295074,658.194824 
	C279.899506,661.360046 278.328827,662.898499 274.825684,663.123596 
	C271.072327,663.364685 268.804138,662.241577 268.230011,658.574036 
	C267.594788,654.516174 270.971375,654.027222 274.043427,653.006226 
z"/>
<path fill="#000000" opacity="1.000000" stroke="none" 
	d="
M278.859924,637.644043 
	C279.126495,640.868835 279.481598,644.244263 275.857788,644.776978 
	C273.820618,645.076477 270.487152,644.078735 269.600922,642.570496 
	C268.715424,641.063721 269.541016,637.782410 270.720490,636.016357 
	C272.375763,633.537842 275.074341,633.736633 277.349243,635.853760 
	C277.832764,636.303772 278.283722,636.788757 278.859924,637.644043 
z"/>
<path fill="#000000" opacity="1.000000" stroke="none" 
	d="
M260.337341,593.195068 
	C258.240356,597.087036 256.418793,600.658386 254.597214,604.229797 
	C254.160934,603.988281 253.724655,603.746826 253.288376,603.505371 
	C252.650223,596.086426 249.497894,593.369568 242.262527,594.002625 
	C236.485168,594.508118 234.171494,597.771362 234.705780,604.661072 
	C224.428772,598.097473 223.200882,584.203247 233.692993,575.980347 
	C234.614029,577.050781 235.566086,578.157288 236.534500,579.282837 
	C234.217087,584.951843 234.922913,588.980896 239.179810,591.602722 
	C242.885559,593.885071 246.633133,593.720276 249.965073,590.548584 
	C253.327179,587.348206 252.926956,583.761353 250.991913,580.095032 
	C248.823822,575.987244 245.476364,575.085510 239.515991,576.859131 
	C237.245331,571.952393 242.040237,572.369263 243.691956,572.502380 
	C254.582993,573.380371 262.556366,581.657532 260.337341,593.195068 
z"/>
<path fill="#000000" opacity="1.000000" stroke="none" 
	d="
M238.532593,564.945923 
	C236.944504,567.360107 235.646225,569.476379 234.233200,571.779602 
	C230.504089,565.807251 224.528442,568.297058 219.354630,568.079041 
	C211.953781,567.767090 207.641876,560.867126 211.447403,554.302856 
	C212.391769,552.673889 215.044342,551.317444 217.024612,551.146912 
	C222.136642,550.706726 227.312286,550.953796 232.461548,551.011658 
	C237.952118,551.073425 239.002029,552.170776 238.990967,557.685547 
	C238.986313,560.006409 238.881622,562.327087 238.532593,564.945923 
z"/>
<path fill="#000000" opacity="1.000000" stroke="none" 
	d="
M247.325592,606.858032 
	C245.758255,606.980530 244.549820,607.216370 243.466797,606.947388 
	C241.796967,606.532776 239.355331,606.194641 238.795853,605.058411 
	C237.978043,603.397583 237.697357,600.176758 238.706390,599.216248 
	C240.209152,597.785767 243.167740,596.936340 245.274567,597.276855 
	C250.406586,598.106201 251.156036,601.608582 247.325592,606.858032 
z"/>
<path fill="#000000" opacity="1.000000" stroke="none" 
	d="
M240.394440,580.250183 
	C243.864563,578.065186 246.422226,578.959717 248.270966,581.855896 
	C249.965988,584.511353 249.316345,587.336182 246.671265,588.569519 
	C244.875351,589.406921 241.754669,589.460327 240.238998,588.407104 
	C237.214294,586.305298 237.432953,583.182007 240.394440,580.250183 
z"/>
<path fill="#000000" opacity="1.000000" stroke="none" 
	d="
M185.358856,624.999634 
	C180.233932,625.048828 178.814957,622.686340 178.912811,618.157227 
	C179.153854,607.003357 178.974564,606.999512 190.228882,606.999451 
	C192.391373,606.999451 194.555252,606.950012 196.716034,607.010864 
	C200.069366,607.105286 204.112106,606.021179 205.864334,610.001831 
	C207.772308,614.336243 207.706451,618.867371 204.988556,623.092285 
	C203.955948,624.697449 203.136169,626.439453 202.133514,628.276489 
	C198.109055,622.576233 191.575363,625.697205 185.358856,624.999634 
z"/>
<path fill="#000000" opacity="1.000000" stroke="none" 
	d="
M205.733124,634.305725 
	C205.893845,632.674866 206.054565,631.044006 206.209702,629.469971 
	C215.251205,626.609924 223.734482,629.668091 227.600128,637.089294 
	C232.277145,646.068115 230.570343,653.299927 222.283875,659.614441 
	C222.620087,653.046875 220.637436,650.306091 215.329575,650.000916 
	C205.930878,649.460571 204.247604,650.843750 203.843750,659.439514 
	C196.956787,654.916748 194.031937,648.495300 196.153641,641.008423 
	C197.347672,636.795044 199.253204,632.505066 205.608765,634.556458 
	C205.662033,635.585510 205.279312,636.298279 205.038742,637.056213 
	C203.407394,642.195740 205.635956,646.505432 210.897614,647.997498 
	C215.546799,649.315857 219.652344,647.362366 221.545807,641.961670 
	C222.883835,638.145203 219.848740,632.853027 214.931778,632.178345 
	C212.017746,631.778442 208.809235,633.524536 205.733124,634.305725 
z"/>
<path fill="#000000" opacity="1.000000" stroke="none" 
	d="
M207.003479,657.106079 
	C209.359802,652.747192 213.411850,651.674194 217.150848,654.035034 
	C220.175629,655.944885 219.746384,658.967590 217.856674,660.675659 
	C216.160812,662.208496 212.973785,663.128052 210.761017,662.696289 
	C209.229370,662.397400 208.235489,659.342529 207.003479,657.106079 
z"/>
<path fill="#F6AE84" opacity="1.000000" stroke="none" 
	d="
M205.770508,634.263550 
	C208.809235,633.524536 212.017746,631.778442 214.931778,632.178345 
	C219.848740,632.853027 222.883835,638.145203 221.545807,641.961670 
	C219.652344,647.362366 215.546799,649.315857 210.897614,647.997498 
	C205.635956,646.505432 203.407394,642.195740 205.038742,637.056213 
	C205.279312,636.298279 205.662033,635.585510 205.935272,634.498901 
	C205.891541,634.145935 205.807877,634.221436 205.770508,634.263550 
M217.023422,643.454834 
	C216.823990,640.942017 217.053589,638.268188 216.202072,636.000183 
	C215.886307,635.159119 212.913025,634.717834 211.361526,635.056274 
	C207.467331,635.905579 207.177231,639.439087 208.233963,642.119751 
	C209.738754,645.937134 213.128677,645.763794 217.023422,643.454834 
z"/>
<path fill="#000000" opacity="1.000000" stroke="none" 
	d="
M216.729675,643.746094 
	C213.128677,645.763794 209.738754,645.937134 208.233963,642.119751 
	C207.177231,639.439087 207.467331,635.905579 211.361526,635.056274 
	C212.913025,634.717834 215.886307,635.159119 216.202072,636.000183 
	C217.053589,638.268188 216.823990,640.942017 216.729675,643.746094 
z"/>
</svg>