<svg id="visual" viewBox="0 0 900 600" width="900" height="600" xmlns="http://www.w3.org/2000/svg" xmlns:xlink="http://www.w3.org/1999/xlink" version="1.1"><rect x="0" y="0" width="900" height="600" fill="#001220"></rect><defs><linearGradient id="grad1_0" x1="33.3%" y1="100%" x2="100%" y2="0%"><stop offset="20%" stop-color="#001220" stop-opacity="1"></stop><stop offset="80%" stop-color="#001220" stop-opacity="1"></stop></linearGradient></defs><defs><linearGradient id="grad2_0" x1="0%" y1="100%" x2="66.7%" y2="0%"><stop offset="20%" stop-color="#001220" stop-opacity="1"></stop><stop offset="80%" stop-color="#001220" stop-opacity="1"></stop></linearGradient></defs><g transform="translate(900, 600)"><path d="M-297.5 0C-291.1 -21.1 -284.7 -42.3 -280.8 -64.1C-276.9 -85.9 -275.4 -108.4 -268 -129.1C-260.6 -149.8 -247.2 -168.7 -231.4 -184.6C-215.7 -200.4 -197.5 -213.2 -177.7 -222.8C-157.9 -232.5 -136.4 -238.9 -115.8 -240.6C-95.3 -242.2 -75.7 -239 -56.5 -247.6C-37.4 -256.3 -18.7 -276.9 0 -297.5L0 0Z" fill="#0066FF"></path></g><g transform="translate(0, 0)"><path d="M297.5 0C280.6 18.5 263.6 36.9 262.3 59.9C260.9 82.8 275 110.2 268 129.1C261 148 232.9 158.4 211.9 169C190.9 179.6 177 190.4 164 205.6C151 220.9 138.8 240.6 122.4 254.1C105.9 267.5 85.2 274.6 64.1 280.8C43 287 21.5 292.2 0 297.5L0 0Z" fill="#0066FF"></path></g></svg>